<svg width="1440" height="1024" fill="none" xmlns="http://www.w3.org/2000/svg"><path fill="#fff" d="M0 0h1440v1024H0z"/><g clip-path="url(#a)"><path d="M1046.99 208.661H393.842c-23.907 0-43.289 19.381-43.289 43.289v413.528c0 23.908 19.382 43.289 43.289 43.289h653.148c23.91 0 43.29-19.381 43.29-43.289V251.95c0-23.908-19.38-43.289-43.29-43.289Z" fill="url(#b)"/><path d="M400.056 208.661h641.774c12.99 0 25.45 5.16 34.63 14.344a48.955 48.955 0 0 1 14.35 34.629H351.083a48.97 48.97 0 0 1 48.973-48.973Z" fill="#5CA4E6"/><path d="M740.489 288.718h302.131c5.18 0 10.16 2.059 13.82 5.724a19.533 19.533 0 0 1 5.73 13.821v149.348a19.53 19.53 0 0 1-5.73 13.82 19.542 19.542 0 0 1-13.82 5.724H740.489a19.546 19.546 0 0 1-19.544-19.544V308.263a19.546 19.546 0 0 1 19.544-19.545Z" stroke="#5661AE" stroke-miterlimit="10" stroke-dasharray="11.93 11.93"/><path d="M961.523 504.779H659.391c-10.794 0-19.544 8.75-19.544 19.545v149.348c0 10.794 8.75 19.544 19.544 19.544h302.132c10.794 0 19.545-8.75 19.545-19.544V524.324c0-10.795-8.751-19.545-19.545-19.545ZM603.238 504.779h-211.12c-9.131 0-16.533 7.402-16.533 16.534v155.37c0 9.131 7.402 16.533 16.533 16.533h211.12c9.131 0 16.533-7.402 16.533-16.533v-155.37c0-9.132-7.402-16.534-16.533-16.534Z" fill="#fff"/><path d="M667.651 641.815s22.645-2.385 36.26 7.808c18.261 13.669 32.968 24.221 52.381-9.376 21.267-36.809 24.61-49.665 40.125-49.817 19.914-.194 27.688 52.886 64.407 56.637 36.718 3.751 61.685-2.251 61.685-2.251" stroke="#5661AE" stroke-width="10" stroke-miterlimit="10" stroke-linecap="round"/><path d="M667.651 535.878h52.764" stroke="#5661AE" stroke-width="16" stroke-miterlimit="10" stroke-linecap="round"/><path d="M667.651 560.503h109.042" stroke="#D4DCF4" stroke-width="16" stroke-miterlimit="10" stroke-linecap="round"/><path d="M395.835 244.223a8.369 8.369 0 1 0 0-16.738 8.369 8.369 0 0 0 0 16.738ZM424.195 244.223a8.368 8.368 0 0 0 8.368-8.368 8.368 8.368 0 1 0-16.736 0 8.368 8.368 0 0 0 8.368 8.368ZM451.746 244.223a8.368 8.368 0 0 0 8.368-8.368 8.368 8.368 0 1 0-16.737 0 8.369 8.369 0 0 0 8.369 8.368Z" fill="#fff"/><path d="M892.038 416.798c18.701 0 33.862-15.16 33.862-33.861 0-18.702-15.161-33.862-33.862-33.862s-33.862 15.16-33.862 33.862c0 18.701 15.161 33.861 33.862 33.861Z" fill="#1C85E8"/><path d="M894.711 366.938a2.673 2.673 0 0 0-5.346 0v34.145a2.673 2.673 0 0 0 5.346 0v-34.145Z" fill="#fff"/><path d="M909.111 386.683a2.672 2.672 0 0 0 0-5.346h-34.145a2.673 2.673 0 1 0 0 5.346h34.145Z" fill="#fff"/><path d="M716.103 903.7c293.877 0 532.107-6.086 532.107-13.594 0-7.508-238.23-13.594-532.107-13.594-293.872 0-532.103 6.086-532.103 13.594 0 7.508 238.231 13.594 532.103 13.594Z" fill="#F5F8FF"/><path d="M1182.77 623.123H810.457v263.013h372.313V623.123Z" fill="#5CA4E6"/><path d="M959.191 623.123H810.457v263.013h148.734V623.123Z" fill="url(#c)"/><path d="M275.171 787.281 259.892 885.4l-5.817-.906a7.493 7.493 0 0 1-6.249-8.554l12.974-83.316a7.493 7.493 0 0 1 8.554-6.249l5.817.906Z" fill="#5661AE"/><path d="m322.924 803.794-23.89-7.148-7.595 33.284 26.137 8.206 5.348-34.342Z" fill="#BC775C"/><path d="m306.485 834.654-4.417-1.386 10.851-32.467 4.034 1.207-10.468 32.646Z" fill="#93523E"/><path d="M302.063 797.118s-9.36 16.263-4.202 34.829l-32.156 52.569c-2.795 2.042-7.042.831-9.402-.425a2.819 2.819 0 0 1-1.192-1.236 2.82 2.82 0 0 1-.257-1.698l13.87-89.065a5.74 5.74 0 0 1 6.447-4.811c5.964.809 15.041 2.116 18.611 3.033 5.518 1.416 8.428 3.423 8.281 6.804Z" fill="#1C85E8"/><path d="m291.449 843.112-4.721-7.529a1.976 1.976 0 0 0-1.614-.928 1.976 1.976 0 0 0-1.671.822 1.99 1.99 0 0 0-.373 1.106c-.01.398.1.789.315 1.124l5.894 9.149 2.17-3.744ZM286.097 851.178l-4.675-7.512a1.982 1.982 0 0 0-3.284-.106 1.977 1.977 0 0 0-.059 2.23l5.77 9.064 2.248-3.676ZM280.55 860.246l-4.589-7.458a1.982 1.982 0 0 0-3.284-.106 1.977 1.977 0 0 0-.058 2.23l5.742 8.914 2.189-3.58Z" fill="#fff"/><path d="M537.81 872.758h99.301v5.887a7.492 7.492 0 0 1-7.49 7.49H545.3a7.49 7.49 0 0 1-7.49-7.49v-5.887Z" fill="#5661AE"/><path d="m546.779 823.033-3.387 24.704 34.057 2.384 4.086-27.088h-34.756Z" fill="#BC775C"/><path d="m581.182 825.373-.872 5.781-34.973 2.396 1.121-8.177h34.724Z" fill="#93523E"/><path d="M543.392 844.672s17.51 6.747 35.061-1.206l56.891 23.684c2.448 2.447 1.905 6.83 1.026 9.355a2.827 2.827 0 0 1-2.676 1.883h-90.139a5.743 5.743 0 0 1-5.745-5.63c-.118-6.018-.223-15.187.133-18.856.551-5.671 2.086-8.855 5.449-9.23Z" fill="#1C85E8"/><path d="m590.472 848.083-6.714 5.824a1.97 1.97 0 0 0-.55.785c-.117.303-.157.63-.117.952a1.978 1.978 0 0 0 3.281 1.238l8.133-7.23-4.033-1.569ZM599.265 852.13l-6.703 5.776a1.962 1.962 0 0 0-.551.785c-.117.303-.157.63-.117.952a1.973 1.973 0 0 0 1.069 1.524 1.979 1.979 0 0 0 2.212-.286l8.068-7.095-3.978-1.656ZM609.079 856.215l-6.664 5.683a1.97 1.97 0 0 0-.55.785c-.117.303-.157.63-.117.952a1.97 1.97 0 0 0 1.068 1.524 1.983 1.983 0 0 0 2.213-.286l7.924-7.045-3.874-1.613Z" fill="#fff"/><path d="m488.289 499.257 20.58-40.52s-12.529 1.637-14.712-6.139c-2.184-7.777 59.21-14.735 59.21-14.735s-4.912 17.191-12.279 19.237l-20.26 59.347-32.539-17.19Z" fill="#BC775C"/><path d="m491.355 493.221 32.146 15.399-2.673 7.827-31.239-19.748 1.766-3.478Z" fill="#93523E"/><path d="m687.356 282.407-295.917 48.442a9.315 9.315 0 0 0-7.688 10.699l19.323 118.038a9.317 9.317 0 0 0 10.699 7.689l295.916-48.443a9.316 9.316 0 0 0 7.689-10.699l-19.323-118.038a9.315 9.315 0 0 0-10.699-7.688Z" fill="#FEBB94"/><path d="m536.14 356.417 120.263-19.688" stroke="#fff" stroke-width="16.521" stroke-miterlimit="10" stroke-linecap="round"/><path opacity=".7" d="m544.684 392.933 78.451-12.843" stroke="#fff" stroke-width="16.521" stroke-miterlimit="10" stroke-linecap="round"/><path d="M464.252 436.958c23.491 0 42.534-19.043 42.534-42.533 0-23.491-19.043-42.534-42.534-42.534-23.49 0-42.533 19.043-42.533 42.534 0 23.49 19.043 42.533 42.533 42.533Z" stroke="#EF6A77" stroke-width="16.521" stroke-miterlimit="10"/><path d="M506.227 387.553a42.536 42.536 0 0 1-43.424 49.381 42.528 42.528 0 0 1-23.372-7.97 42.533 42.533 0 0 1 17.95-76.514" stroke="#fff" stroke-width="16.521" stroke-miterlimit="10" stroke-linecap="round"/><path d="m478.112 712.926 12.275 138.934c0 29.782-30.387 33.17-40.115 29.66-13.721-4.951-146.617-38.783-146.617-38.783l14.084-43.136 101.998 14.177s-2.789-28.945-30.141-117.33l88.516 16.478Z" fill="#5661AE"/><path d="m398.709 727.062 82.703 23.221-4.65-55.789-87.166 1.954 9.113 30.614Z" fill="#465393"/><path d="M476.911 408.531s16.378 18.592 21.247 26.117c4.87 7.525 5.044 22.284-5.137 26.046-10.18 3.763-18.508 4.395-33.373 1.619-11.565-2.16-26.559-21.247-22.132-30.985 4.426-9.738 25.009-27.444 39.395-22.797Z" fill="#BC775C"/><path d="m480.01 460.542-2.435 31.428-35.633-7.746 15.936-29.657 22.132 5.975Z" fill="#BC775C"/><path d="M480.01 463.813h-9.688l8.288 14.798" fill="#93523E"/><path d="m437.959 482.232 5.314-5.148a5.707 5.707 0 0 1 2.463-1.407 5.71 5.71 0 0 1 2.836-.051l29.137 6.9a4.177 4.177 0 0 1 3.015 2.799l2.106 6.645-44.871-9.738Z" fill="url(#d)"/><path d="m391.81 641.13-5.216 25.269c-5.872 38.548 21.765 64.046 64.004 57.097 37.722-6.206 149.461-49.529 149.461-49.529l-4.453-68.565-93.937 15.498s-84.434-15.643-109.859 20.23Z" fill="#5661AE"/><path d="M602.603 665.363c16.783 0 30.388-13.605 30.388-30.387 0-16.783-13.605-30.388-30.388-30.388-16.782 0-30.387 13.605-30.387 30.388 0 16.782 13.605 30.387 30.387 30.387Z" fill="#5661AE"/><path d="M602.603 665.363c16.783 0 30.388-13.605 30.388-30.387 0-16.783-13.605-30.388-30.388-30.388-16.782 0-30.387 13.605-30.387 30.388 0 16.782 13.605 30.387 30.387 30.387ZM460 883.12c16.783 0 30.387-13.605 30.387-30.387 0-16.783-13.604-30.388-30.387-30.388-16.782 0-30.387 13.605-30.387 30.388 0 16.782 13.605 30.387 30.387 30.387Z" fill="#5661AE"/><path d="M631.508 643.757 588.79 825.373h-51.091l34.517-190.397 59.292 8.781Z" fill="#5661AE"/><path d="m501.669 620.901-112.512 35.015 2.653-14.786 109.859-20.229Z" fill="#465393"/><path d="m526.917 518.306 11.179 8.133 37.329-61.272s-4.97-20.069-5.312-23.486l12.146-1.732s9.837-18.541 12.642-22.209c2.804-3.667 6.04-3.02 7.766 0 0 0 5.393.863 6.256 8.198 0 0 4.746 1.079 6.687 10.57 0 0 4.099 4.315 3.236 9.061-.863 4.746-11.649 23.346-13.375 25.264a46.95 46.95 0 0 0-3.667 4.937l-35.953 86.153s-8.785 18.844-29.373 11.697l-25.524-11.829c-11.716-7.591 15.963-43.485 15.963-43.485Z" fill="#BC775C"/><path d="M545.732 575.848c11.867 0 21.488-9.621 21.488-21.488 0-11.868-9.621-21.489-21.488-21.489-11.868 0-21.489 9.621-21.489 21.489 0 11.867 9.621 21.488 21.489 21.488Z" fill="#BC775C"/><path d="M455.664 424.024s21.026-7.082 25.231-21.911c4.205-14.829-4.647-22.575-16.156-15.05 0 0-8.189-13.058-22.133-3.984-13.943 9.075-11.287 30.543-10.844 34.748 0 0-15.714 11.066-8.189 28.551 7.525 17.484 28.173 21.689 28.173 21.689a31.243 31.243 0 0 0 4.804-10.844s-11.379-8.632-4.804-17.042c6.574-8.411 14.099 5.09 14.099 5.09s5.755-19.034-10.181-21.247Z" fill="#465393"/><path d="M437.959 482.232s-14.597 7.258-17.903 15.074c-3.056 7.222-24.308 102.08-30.816 140.265a5.603 5.603 0 0 0 1.653 5.004 5.603 5.603 0 0 0 5.073 1.425l105.703-23.1s-5.17-55.554-3.358-71.858c1.811-16.304-15.481-57.072-15.481-57.072l-44.871-9.738Z" fill="url(#e)"/><path d="m497.936 556.729-26.649-15.837 27.729 45.615-1.08-29.778Z" fill="#96BAFD"/><path d="m538.096 526.438 7.76 5.409 7.511-30.474-15.271 25.065Z" fill="#93523E"/><path d="M482.83 491.97s42.415 23.187 47.565 26.989a3.48 3.48 0 0 1 1.019 4.409l-19.481 37.403a3.475 3.475 0 0 1-4.866 1.384l-49.438-29.38s-2.63-39.108 25.201-40.805Z" fill="url(#f)"/><path d="M477.419 436.42c1.016-.759.901-2.632-.257-4.183-1.159-1.552-2.922-2.194-3.938-1.435-1.017.759-.901 2.632.257 4.183 1.158 1.551 2.921 2.194 3.938 1.435ZM491.357 425.873c1.016-.759.901-2.632-.257-4.183-1.159-1.552-2.922-2.194-3.938-1.435-1.017.759-.901 2.632.257 4.183 1.158 1.551 2.921 2.194 3.938 1.435Z" fill="#080B09"/><path d="M485.714 428.762s-.241 4.588 2.57 3.38c2.645-1.246 4.905-.388 3.248 3.094" stroke="#93523E" stroke-width="1.209" stroke-linecap="round" stroke-linejoin="round"/><path d="M492.461 438.51c-1.596.869-4.789 2.605-6.896 3.796a.799.799 0 0 0-.41.715.795.795 0 0 0 .444.695c2.955 1.276 9.283 3.134 7.955-4.61a.713.713 0 0 0-1.093-.596Z" fill="#fff"/><path d="m465.432 431.834.296.242a2.118 2.118 0 0 0 2.985-.031l6.57-7.023a1.856 1.856 0 0 0 .125-2.512 2.015 2.015 0 0 0-2.292-.685 2.025 2.025 0 0 0-.72.447l-6.866 6.781a1.945 1.945 0 0 0-.639 1.37 1.923 1.923 0 0 0 .541 1.411ZM489.309 411.905l-9.035 3.39a2.031 2.031 0 0 0-1.161 1.182 2.014 2.014 0 0 0 .115 1.653 1.858 1.858 0 0 0 2.333.939l9.13-3.02a2.116 2.116 0 0 0 1.28-2.697l-.096-.37a1.927 1.927 0 0 0-1.054-1.083 1.93 1.93 0 0 0-1.512.006Z" fill="#080B09"/><path d="m1182.77 257.634-78.1 60.738h151.14l-73.04-60.738Z" fill="#FEBB94"/><path d="M935.491 569.565s-28.64-25.001-51.925-3.755c-23.286 21.245-119.492 167.139-119.492 167.139l29.098 20.123 109.13-122.728 18.996 30.576 14.193-91.355Z" fill="#FCBA9F"/><path fill-rule="evenodd" clip-rule="evenodd" d="M916.006 848.723c11.996-8.766 24.361-17.802 37.382-20.72a2.08 2.08 0 0 1 1.704.361 2.068 2.068 0 0 1 .828 1.532l1.427 24.158a2.062 2.062 0 0 1-1.658 2.144l-89.197 17.63c-6.577 1.3-10.795-1.56-12.818-6.639a.98.98 0 0 1 .222-1.033.978.978 0 0 1 1.033-.223 47.779 47.779 0 0 0 36.041-1.259c8.228-3.668 16.539-9.742 25.036-15.951Z" fill="#5661AE"/><path fill-rule="evenodd" clip-rule="evenodd" d="M943.379 769.577s1.689 38.128 2.579 42.007a44.974 44.974 0 0 0 2.296 6.199c1.529 3.644 3.232 7.705 3.388 10.656-12.381 3.298-24.177 11.916-35.635 20.288-8.497 6.208-16.807 12.279-25.036 15.947a47.808 47.808 0 0 1-34.395 1.836c-1.551-6.591 2.951-13.887 14.308-17.174 20.356-5.891 31.48-9.625 38.578-26.651 5.044-12.099-3.404-54.22-3.404-54.22l37.321 1.112Z" fill="#FFCCB3"/><path fill-rule="evenodd" clip-rule="evenodd" d="M910.353 816.248c4.003-.246 19.907-1.293 35.133-3.284 2.959-.386 5.6 5.171 4.336 8.706a50.407 50.407 0 0 0-1.847 7.906 76.709 76.709 0 0 0-14.224 6.938c.921-6.299-2.921-9.088-8.629-8.801-4.509.227-14.694 3.091-19.945 4.646a1.582 1.582 0 0 1-1.631-.473 1.574 1.574 0 0 1-.256-1.678l5.718-13.019a1.574 1.574 0 0 1 1.345-.941ZM868.236 868.758c10.362.811 16.63-1.883 16.63-1.883l-4.17-21.095-16.213 3.989 3.753 18.989Z" fill="#fff"/><path fill-rule="evenodd" clip-rule="evenodd" d="M738.3 772.563c14.816 1.104 30.088 2.243 41.893 8.464a2.079 2.079 0 0 1 1.07 2.271 2.075 2.075 0 0 1-.369.812l-14.578 19.317a2.062 2.062 0 0 1-2.652.557l-79.337-44.413c-5.85-3.275-7.207-8.188-5.454-13.366a.972.972 0 0 1 .839-.642.971.971 0 0 1 .931.5 47.776 47.776 0 0 0 28.254 22.41c8.643 2.543 18.908 3.308 29.403 4.09Z" fill="#5661AE"/><path fill-rule="evenodd" clip-rule="evenodd" d="m810.457 730.057-25.274 33.652a45.033 45.033 0 0 0-2.271 6.209c-1.199 3.766-2.536 7.961-4.33 10.309-11.565-5.517-26.133-6.604-40.284-7.661-10.494-.783-20.757-1.549-29.4-4.092a47.812 47.812 0 0 1-27.375-20.904c3.092-6.023 11.251-8.659 22.028-3.797 19.317 8.714 30.207 13.084 46.649 4.724a28.008 28.008 0 0 0 7.029-5.877l25.536-37.608 27.692 25.045Z" fill="#FCBA9F"/><path fill-rule="evenodd" clip-rule="evenodd" d="M755.053 744.175c3.207 2.408 15.993 11.922 28.876 20.279 2.503 1.625.91 7.568-2.344 9.44a50.262 50.262 0 0 0-6.532 4.821 76.694 76.694 0 0 0-15.327-3.941c4.785-4.198 3.669-8.813-.864-12.295-3.579-2.751-13.19-7.175-18.196-9.396a1.578 1.578 0 0 1-.699-2.27c.158-.255.386-.461.658-.591l12.794-6.204a1.578 1.578 0 0 1 1.634.157ZM688.942 756.842c7.363 7.336 13.881 9.349 13.881 9.349l10.504-18.764-14.93-7.475-9.455 16.89Z" fill="#fff"/><path d="m974.766 551.425-75.516 13.416 14.864 59.777h48.372s22.994-49.423 12.28-73.193Z" fill="#FFCCB3"/><path d="M908.929 624.033c16.782 0 30.387-13.604 30.387-30.387 0-16.782-13.605-30.387-30.387-30.387-16.783 0-30.388 13.605-30.388 30.387 0 16.783 13.605 30.387 30.388 30.387Z" fill="#FFCCB3"/><path d="m878.918 598.434 30.407 190.392 35.072 1.464-4.095-188.203-61.384-3.653Z" fill="#FFCCB3"/><path d="M926.553 556.662s11.638 3.584 16.442 22.566c4.804 18.981-.438 45.39-.438 45.39h7.484s26.684-31.336 7.052-71.273l-30.54 3.317Z" fill="#FF967C"/><path d="m999.978 393.847-9.505 4.56a27.46 27.46 0 0 0-14.769 18.132l-21.487 86.456-48.442 23.162 11.044 17.541 91.591-3.248-8.432-146.603Z" fill="#5661AE"/><path d="M986.29 424.97s-16.679 23.433-8.608 45.751c8.071 22.319 4.776 26.457 2.757 46.23-2.018 19.772 4.573 15.174 4.573 15.174l23.398-11.036s9.76-93.529-22.12-96.119Z" fill="#465393"/><path d="M1084.42 532.589s9.25 45.256-2.87 64.168c-15.34 23.938-34.1 27.604-47.97 27.861h-91.023s-.168-56.787-45.01-66.489c0 0 147.583-41.103 186.873-25.54Z" fill="#1F2D49"/><path d="m1086.46 545.767-96.466 3.176 1.026-6.738 18.8-2.173h76.5l.14 5.735Z" fill="#0D1B33"/><path d="M961.697 524.562s-11.801 3.43-17.102 4.989c-5.301 1.559-15.783 5.302-15.783 5.302l7.675 10.914 34.782-2.069-9.572-19.136Z" fill="#FFCCB3"/><path d="M1018.88 385.776s-19.805 7.838-22.83 10.257c-3.024 2.42-5.896 22.166-11.038 31.542-5.141 9.376-12.663 26.681-1.677 42.576 10.986 15.896 9.818 28.518 9.818 28.518l-2.338 39.874 91.645 2.788c.83.026 1.66-.125 2.43-.444a5.88 5.88 0 0 0 3.32-3.52c.27-.788.37-1.625.3-2.456-1.05-11.626-2.82-28.994-3.2-47.506-.51-25.088-.89-108.917-.89-108.917l-41.25-1.294c-8.3 1.432-24.29 8.582-24.29 8.582Z" fill="#5661AE"/><path d="M1084.42 422.995c12.29 0 22.25-9.963 22.25-22.253 0-12.29-9.96-22.254-22.25-22.254s-22.25 9.964-22.25 22.254c0 12.29 9.96 22.253 22.25 22.253Z" fill="#5661AE"/><path d="M1087.42 525.717s-1.9 6.957-22.25 15.088c0 0-47.71-1.037-71.413-.539-23.703.499 2.541-5.754 15.773-12.351 13.23-6.597 76.39-24.92 76.39-24.92l1.5 22.722ZM1068.19 412.756s-13.8 12.58-14.61 21.914c-.82 9.334-2.69 35.36-20.42 37.956-21.74 3.182-27.43 6.28-17.35 8.715 10.07 2.435 32.94-1.511 32.94 8.928 0 7.428 8.88 12.986 13.35 8.928 4.46-4.058 40.02-65.744 6.09-86.441Z" fill="#465393"/><path d="M1106.43 403.998c-1.87 8.93-19.67 103.01-19.67 103.01s-2.34 14.074-16.09 17.554l-95.904 24.381-16.875-25.313 86.979-29.746 17.3-93.142s46.76-8.657 44.26 3.256Z" fill="#5661AE"/><path d="m1016.65 368.45.91 30.873s-.24 5.326 6.22 4.608c6.47-.718 19.48-5.552 23.07-11.777 3.59-6.226 1.32-8.361 1.32-8.361l-19.73-38.461-11.79 23.118Z" fill="#FFCCB3"/><path d="m1016.65 372.038 8.08-9.579-7.39 29.47-.69-19.891Z" fill="#FF967C"/><path d="M1023.85 292.35c-.35-5.89.93-11.763 3.71-16.97 4.6-8.308 14.14-19.798 28.64-14.848 14.49 4.949 25.1 16.086 19.62 31.818-5.48 15.733-20.7 20.767-28.46 19.091-7.76-1.676-23.51-19.091-23.51-19.091Z" fill="#080B09"/><path d="M1019.18 294.538a7.933 7.933 0 0 1 8.34-3.742c5.74 1.056 11.77 5.585 16.91 11.018 5.13 5.434 4.96 9.378 2.63 11.783-2.33 2.406-27.88-19.059-27.88-19.059Z" fill="#FEBB94"/><path d="m892.038 452.055 36.774 101.88h73.938a11.727 11.727 0 0 0-11.73-11.73h-53.491l-31.754-90.15h-13.737Z" fill="#fff"/><path d="M892.038 452.055h-99.202l38.365 101.88h97.611l-36.774-101.88Z" fill="#D4DCF4"/><path d="M860.824 515.022a8.947 8.947 0 1 0-.001-17.893 8.947 8.947 0 0 0 .001 17.893Z" fill="#fff"/><path d="M976.496 330.488s3.059 29.55 17.436 43.005c9.378 8.774 17.978 6.527 30.798-11.034 11.75-16.102 12.78-23.932 12.78-23.932l-12.42-27.952s-50.055-7.124-48.594 19.913Z" fill="#FFCCB3"/><path d="M981.584 324.703s7.074 11.26 20.026 11.442a20.462 20.462 0 0 0 9.4 4.314c3.46.607 7.01.316 10.31-.847 0 0-5.16-7.837 0-10.584 8.78-4.664 11.8 10.888 7.12 16.304-3.18 3.681.18 7.967 2.55 11.799 2.38 3.833 10.04 13.322 10.04 13.322s-.73-5.475 2.74-9.489c3.47-4.015 14.71-45.117-6.18-60.237-20.89-15.119-42.882-3.024-47.005 0 0 0-21.953 3.834-21.992 26.665-.033 19.518 13.858 24.161 13.858 24.161l-4.146-15.754s2.564.274 3.279-11.096Z" fill="#080B09"/><path d="M1004.93 361.101s1.62 5.065-3.88 7.418c-3.717 1.222-6.313-2.417-6.313-2.417l10.193-5.001Z" fill="#E56441"/><path d="M985.67 353.673c1.144-.282 1.734-1.878 1.317-3.564-.416-1.686-1.68-2.823-2.824-2.541-1.144.283-1.734 1.878-1.318 3.564.416 1.686 1.681 2.823 2.825 2.541ZM1002.63 349.742c1.14-.282 1.73-1.877 1.32-3.563-.42-1.686-1.68-2.824-2.83-2.541-1.142.282-1.732 1.878-1.315 3.563.415 1.686 1.685 2.824 2.825 2.541ZM979.09 344.583l8.631-1.981a.624.624 0 0 0 .425-.703 2.002 2.002 0 0 0-.431-.681 2.001 2.001 0 0 0-2.242-.454l-6.768 2.867c-.563.139-.32 1.126.385.952ZM1008.07 336.858l-11.241 3.522a2.565 2.565 0 0 1 1.216-2.756c.31-.181.654-.295 1.011-.335l8.984-1.171c.28-.069.45.635.03.74Z" fill="#080B09"/><path d="m991.723 348.036-1.219 9.101 3.214 1.552" stroke="#E56441" stroke-width=".947" stroke-linecap="round"/><path d="M1182.77 257.634V121" stroke="#5661AE" stroke-miterlimit="10"/></g><defs><linearGradient id="b" x1="702" y1="207.473" x2="780.214" y2="1274.53" gradientUnits="userSpaceOnUse"><stop stop-color="#fff"/><stop offset="1" stop-color="#94B9FF"/></linearGradient><linearGradient id="c" x1="881.121" y1="622.498" x2="985.455" y2="1166.69" gradientUnits="userSpaceOnUse"><stop stop-color="#fff"/><stop offset="1" stop-color="#94B9FF"/></linearGradient><linearGradient id="d" x1="459.277" y1="475.433" x2="460.686" y2="510.768" gradientUnits="userSpaceOnUse"><stop stop-color="#fff"/><stop offset="1" stop-color="#94B9FF"/></linearGradient><linearGradient id="e" x1="442.613" y1="481.847" x2="495.506" y2="820.887" gradientUnits="userSpaceOnUse"><stop stop-color="#fff"/><stop offset="1" stop-color="#94B9FF"/></linearGradient><linearGradient id="f" x1="492.837" y1="491.802" x2="508.319" y2="641.809" gradientUnits="userSpaceOnUse"><stop stop-color="#fff"/><stop offset="1" stop-color="#94B9FF"/></linearGradient><clipPath id="a"><path fill="#fff" transform="translate(184 121)" d="M0 0h1071.81v782.7H0z"/></clipPath></defs></svg>