<svg width="1440" height="1024" fill="none" xmlns="http://www.w3.org/2000/svg"><path fill="#fff" d="M0 0h1440v1024H0z"/><g clip-path="url(#a)"><path d="M727.196 835.554c196.007 0 354.904-4.675 354.904-10.441 0-5.767-158.897-10.442-354.904-10.442s-354.902 4.675-354.902 10.442c0 5.766 158.895 10.441 354.902 10.441Z" fill="#F5F8FF"/><path d="M775.693 820.889H534.726c-19.545 0-32.703-15.845-29.389-35.39l97.049-572.351c3.314-19.546 21.846-35.391 41.391-35.391h240.967c19.545 0 32.703 15.845 29.389 35.391l-97.049 572.351c-3.314 19.545-21.846 35.39-41.391 35.39Z" fill="#5CA4E6"/><path d="M745.596 820.889H504.629c-19.545 0-32.703-15.845-29.389-35.39l97.049-572.351c3.314-19.546 21.845-35.391 41.391-35.391h240.966c19.546 0 32.704 15.845 29.39 35.391l-97.049 572.351c-3.314 19.545-21.846 35.39-41.391 35.39Z" fill="#D1E8F7"/><path d="M746.981 801.754H509.733c-10.149 0-16.981-8.227-15.26-18.376l96.33-568.11c1.721-10.149 11.343-18.376 21.492-18.376h237.248c10.149 0 16.981 8.227 15.26 18.376l-96.33 568.11c-1.721 10.149-11.343 18.376-21.492 18.376Z" fill="#fff"/><path d="M769.437 388.307H542.588l23.643-130.615c1.549-7.964 9.261-14.42 17.224-14.42h214.19c7.964 0 13.164 6.456 11.615 14.42l-22.599 116.196c-1.549 7.963-9.26 14.419-17.224 14.419Z" fill="url(#b)"/><path d="M751.153 371.5H411.546c-7.963 0-13.164-6.456-11.615-14.42l22.599-116.196c1.549-7.964 9.26-14.42 17.224-14.42h339.607c7.963 0 13.164 6.456 11.615 14.42L768.377 357.08c-1.549 7.964-9.261 14.42-17.224 14.42ZM729.486 786.942l-210.632 1c-7.964 0-13.164-6.456-11.615-14.419l22.599-116.196c1.549-7.964 9.26-14.42 17.224-14.42l210.632-1c7.964 0 13.164 6.456 11.615 14.42L746.71 772.523c-1.549 7.963-9.26 14.419-17.224 14.419Z" fill="#FEBB94"/><path d="M542.02 751.756c5.993-46.877 50.533-84.879 99.483-84.879s83.773 38.002 77.78 84.879" stroke="#FF967C" stroke-width="16.521" stroke-miterlimit="10" stroke-linecap="round"/><path d="M542.02 751.756c5.993-46.877 50.533-84.879 99.483-84.879 24.227 0 44.994 9.309 59.064 24.396" stroke="#fff" stroke-width="16.521" stroke-miterlimit="10" stroke-linecap="round"/><path d="M704.298 625.479H553.48c-8.05 0-13.491-6.526-12.152-14.576l31.852-191.592c1.338-8.05 8.949-14.575 16.999-14.575h150.817c8.05 0 13.491 6.525 12.153 14.575l-31.853 191.592c-1.338 8.05-8.948 14.576-16.998 14.576Z" fill="url(#c)"/><path d="M599.922 506.051h-20.563a4.984 4.984 0 0 0-4.727 4.054l-11.168 67.177a3.335 3.335 0 0 0 .699 2.852 3.348 3.348 0 0 0 2.68 1.201h20.563a4.983 4.983 0 0 0 4.728-4.053l11.168-67.177a3.349 3.349 0 0 0-1.901-3.763 3.344 3.344 0 0 0-1.479-.291ZM637.44 529.036h-20.563a4.983 4.983 0 0 0-4.728 4.053l-7.347 44.193a3.349 3.349 0 0 0 1.901 3.763c.464.208.97.307 1.479.29h20.563a4.98 4.98 0 0 0 4.727-4.053l7.347-44.193a3.335 3.335 0 0 0-.699-2.852 3.348 3.348 0 0 0-2.68-1.201ZM687.105 464.367h-20.563a4.982 4.982 0 0 0-4.727 4.053l-18.098 108.862a3.335 3.335 0 0 0 .699 2.852 3.348 3.348 0 0 0 2.68 1.201h20.563a4.983 4.983 0 0 0 4.728-4.053l18.098-108.862a3.349 3.349 0 0 0-1.901-3.763 3.343 3.343 0 0 0-1.479-.29ZM722.491 492.586h-20.563a4.98 4.98 0 0 0-4.727 4.053l-13.407 80.643a3.335 3.335 0 0 0 .699 2.852 3.348 3.348 0 0 0 2.68 1.201h20.563a4.982 4.982 0 0 0 4.728-4.053l13.407-80.643a3.349 3.349 0 0 0-1.901-3.763 3.343 3.343 0 0 0-1.479-.29Z" fill="#fff"/><path d="M588.231 428.306h55.674M585.088 447.21h27.837" stroke="#fff" stroke-width="10" stroke-miterlimit="10" stroke-linecap="round"/><path opacity=".6" d="M569.465 595.025h10.768M610.804 595.025h10.767M649.718 595.025h10.768M689.795 595.025h10.768" stroke="#fff" stroke-width="6" stroke-miterlimit="10" stroke-linecap="round"/><path d="M902.128 625.479H751.311c-8.05 0-13.491-6.526-12.153-14.576l31.853-191.592c1.338-8.05 8.948-14.575 16.998-14.575h150.818c8.05 0 13.491 6.525 12.152 14.575l-31.852 191.592c-1.338 8.05-8.949 14.576-16.999 14.576Z" fill="url(#d)"/><path d="M793.846 534.934h-20.563a4.98 4.98 0 0 0-4.727 4.053l-7.262 38.295a3.349 3.349 0 0 0 1.901 3.763c.464.208.97.307 1.479.29h20.563a4.98 4.98 0 0 0 4.727-4.053l7.262-38.295a3.349 3.349 0 0 0-1.901-3.763 3.343 3.343 0 0 0-1.479-.29ZM843.036 475.635h-20.563a4.982 4.982 0 0 0-4.727 4.053l-15.113 97.594a3.349 3.349 0 0 0 1.901 3.763c.464.208.97.307 1.479.29h20.563a4.982 4.982 0 0 0 4.727-4.053l15.113-97.594a3.349 3.349 0 0 0-1.901-3.763 3.343 3.343 0 0 0-1.479-.29ZM878.132 503.5h-20.563a4.982 4.982 0 0 0-4.727 4.053l-11.295 69.729a3.349 3.349 0 0 0 1.901 3.763c.465.208.97.307 1.479.29h20.563a4.98 4.98 0 0 0 4.727-4.053l11.295-69.729a3.349 3.349 0 0 0-1.901-3.763 3.343 3.343 0 0 0-1.479-.29ZM920.322 492.586h-20.563a4.983 4.983 0 0 0-4.728 4.053l-13.406 80.643a3.335 3.335 0 0 0 .699 2.852 3.348 3.348 0 0 0 2.68 1.201h20.563a4.98 4.98 0 0 0 4.727-4.053l13.407-80.643a3.349 3.349 0 0 0-.699-2.852 3.348 3.348 0 0 0-2.68-1.201Z" fill="#fff"/><path d="M786.062 428.306h55.673M782.919 447.21h27.837" stroke="#fff" stroke-width="10" stroke-miterlimit="10" stroke-linecap="round"/><path opacity=".6" d="M767.296 595.025h10.767M808.635 595.025h10.767M847.549 595.025h10.768M887.626 595.025h10.768" stroke="#fff" stroke-width="6" stroke-miterlimit="10" stroke-linecap="round"/><path d="m261.956 840.799 42.826 89.591-5.311 2.539a7.488 7.488 0 0 1-9.988-3.527l-36.367-76.075a7.493 7.493 0 0 1 3.528-9.989l5.312-2.539Z" fill="#71C8EA"/><path d="m308.581 820.569-29.556 12.218 16.581 23.448 26.202-7.995-13.227-27.671Z" fill="#FFCCB3"/><path d="M289.702 833.723s11.539 17.822 13.28 27.781c1.741 9.958 7.702 60.332 6.098 64.873-1.153 3.264-5.341 4.665-7.998 4.961a2.825 2.825 0 0 1-2.853-1.602l-38.875-81.325a5.742 5.742 0 0 1 2.602-7.612c5.378-2.702 13.605-6.751 17.069-8.012 5.354-1.949 8.888-1.937 10.677.936Z" fill="#5661AE"/><path d="m498.929 876.359-40.163 74.14a7.492 7.492 0 0 1-10.154 3.018l-5.177-2.804 47.3-87.312 5.176 2.804a7.487 7.487 0 0 1 3.018 10.154Z" fill="#71C8EA"/><path d="m445.191 840.84 28.901 13.696-17.745 22.58-25.765-9.309 14.609-26.967Z" fill="#FFCCB3"/><path d="M463.381 854.931s-12.425 17.216-14.667 27.074c-2.241 9.858-10.74 59.866-9.368 64.483.986 3.318 5.098 4.928 7.737 5.358a2.818 2.818 0 0 0 2.93-1.455l42.936-79.257a5.744 5.744 0 0 0-2.214-7.733c-5.235-2.971-13.248-7.431-16.643-8.865-5.249-2.217-8.779-2.383-10.711.395Z" fill="#5661AE"/><path d="M532.26 735.227s11.064 54.943 2.478 65.709l-218.785 56.022-18.657-34.947 127.761-57.975 25.587-35.07 81.616 6.261Z" fill="#D1E8F7"/><path d="m476.896 774.432-48.272 16.145-22.525 9.445 29.292 26.353-26.188 5.916-71.431-57.859h139.124ZM311.005 817.428l1.485 5.16 33.92 26.476 31.863-7.775s-61.467-29.252-67.268-23.861Z" fill="#5CA4E6"/><path d="M372.411 732.022s-61.865-3.356-92.529-.66c-19.745 1.735-26.863 52.262-11.106 61.454l169.106 86.586 19.928-36.009-109.089-73.842 78.045-10.978-54.355-26.551Z" fill="#D1E8F7"/><path d="M285.082 797.118c18.27 0 33.081-14.811 33.081-33.082 0-18.27-14.811-33.082-33.081-33.082-18.271 0-33.082 14.812-33.082 33.082 0 18.271 14.811 33.082 33.082 33.082ZM529.242 801.39c18.27 0 33.081-14.811 33.081-33.081 0-18.271-14.811-33.082-33.081-33.082-18.271 0-33.082 14.811-33.082 33.082 0 18.27 14.811 33.081 33.082 33.081Z" fill="#D1E8F7"/><path d="M438.62 612.202c-3.485-17.205 4.711-16.762 7.439-19.497 0 0 10.232-8.438 18.029-.573 8.253 8.32 55.562 72.951 55.562 72.951l-29.601 27.225-5.564-6.64-14.413-17.19-15.416-18.372-1.915-2.091-20.796-23.555s8.646-3.2 6.675-12.258Z" fill="#5661AE"/><path d="M455.036 629.48c11.914-3.99 18.336-16.882 14.346-28.796-3.99-11.913-16.882-18.336-28.796-14.346-11.913 3.991-18.336 16.883-14.345 28.796 3.99 11.913 16.882 18.336 28.795 14.346Z" fill="#5661AE"/><path d="M453.014 647.923c-.597-3.596-1.791-10.788-3.076-17.343l-6.829-31.725s18.342 27.11 26.793 45.993c6.258 14.151 13.518 28.574 14.719 40.774l-14.412-17.189-15.416-18.372-1.779-2.138Z" fill="#465393"/><path d="M549.217 592.32c7.034-12.83 3.654-15.008 6.646-22.307 2.948-7.123-2.286-24.78 2.725-22.372 5.01 2.407 6.561 8.806 6.561 8.806 3.427-6.063 6.583-17.217 14.786-18.494 8.205-1.276 8.931 1.306 13.581 5.122 12.371 10.293-3.404 25.762-6.037 31.652-1.694 3.693-14.141 14.95-15.52 17.41l-6.265 9.088-16.477-8.905Z" fill="#FFCCB3"/><path d="m573.386 557.242 9.997-18.457-9.997 18.457Z" fill="#E56441"/><path d="m573.386 557.242 9.997-18.457" stroke="#E56441" stroke-width=".947" stroke-linecap="round"/><path d="m579.936 560.231 10.896-17.19-10.896 17.19Z" fill="#E56441"/><path d="m579.936 560.231 10.896-17.19" stroke="#E56441" stroke-width=".947" stroke-linecap="round"/><path d="m587.718 563.535 6.227-10.41-6.227 10.41Z" fill="#E56441"/><path d="m587.718 563.535 6.227-10.41" stroke="#E56441" stroke-width=".947" stroke-linecap="round"/><path d="M570.916 573.49c-.053-6.391-3.888-14.124-3.888-14.124l3.888 14.124Z" fill="#E56441"/><path d="M570.916 573.49c-.053-6.391-3.888-14.124-3.888-14.124" stroke="#E56441" stroke-width=".947" stroke-linecap="round"/><path d="m489.798 664.568 60.193-80.159a2.46 2.46 0 0 1 3.25-.506l15.762 10.424a3.646 3.646 0 0 1 1.161 4.756l-48.406 89.269-31.96-23.784Z" fill="#5661AE"/><path d="M504.423 698.426c11.133 0 20.158-9.025 20.158-20.158 0-11.132-9.025-20.157-20.158-20.157-11.132 0-20.157 9.025-20.157 20.157 0 11.133 9.025 20.158 20.157 20.158ZM415.037 574.986s33.779 8.939 39.577 11.258c5.799 2.32 6.185 11.597 6.572 18.169.386 6.572-.912 154.16-.912 154.16l-74.756-2.875-55.906-32.725s2.431-117.106 3.204-122.518c.773-5.412-5.302-10.072 1.283-12.797l42.33-11.182 38.608-1.49Z" fill="#5661AE"/><path d="m358.784 627.562.602 109.044-32.138-35.82 15.549-76.617 15.987 3.393ZM370.916 578.143s-4.782 9.617 0 16.251 23.926 13.079 37.005 12.889c13.078-.189 20.008-12.659 14.079-30.117l-21.661-6.085-23.91 5.395-5.513 1.667Z" fill="#465393"/><path d="M425.058 495.259s9.418 20.323-.627 24.521-8.875-23.535.627-24.521Z" fill="#93523E"/><path d="m414.434 560.291 2.725 30.724s2.612 4.119-7.561 6.282c-6.544 1.391-24.166-5.552-27.585-7.635a7.072 7.072 0 0 1-3.442-8.334c1.039-3.76 5.345-35.082 5.345-35.082l30.518 14.045Z" fill="#FFCCB3"/><path d="m414.959 566.214-16.232-8.019 18.096 29.032-1.864-21.013Z" fill="#FF967C"/><path d="M419.649 501.14s9.526 23.891 12.981 40.65c3.486 16.909-2.076 21.132-9.415 23.618-5.789 1.962-15.033 3.526-21.321 1.557-11.467-3.59-22.685-13.951-25.368-16.079-4.154-3.295-8.255-18.241-2.167-26.696 6.089-8.456 30.078-35.028 45.29-23.05Z" fill="#FFCCB3"/><path d="M407.385 534.116c1.267-.499 1.677-2.47.916-4.404-.761-1.934-2.404-3.097-3.671-2.599-1.267.499-1.677 2.47-.917 4.404.761 1.934 2.405 3.097 3.672 2.599ZM424.797 527.138c1.267-.498 1.677-2.47.916-4.403-.76-1.934-2.404-3.097-3.671-2.599-1.267.499-1.677 2.47-.916 4.404.76 1.933 2.404 3.097 3.671 2.598Z" fill="#080B09"/><path d="M418.411 530.437s-1.547 4.682 1.705 4.226c3.091-.542 5.189.985 2.488 4.122" fill="#E56441"/><path d="M418.411 530.437s-1.547 4.682 1.705 4.226c3.091-.542 5.189.985 2.488 4.122" stroke="#E56441" stroke-width=".947" stroke-linecap="round"/><path d="m422.755 542.924.016-.003.016-.005a.259.259 0 0 1 .138-.004c.046.01.088.033.122.066a.271.271 0 0 1 .072.119.273.273 0 0 1 .001.139l-.01.039-.004.04c-.199 2.049-.709 3.267-1.328 3.951-.598.662-1.348.882-2.199.817-.873-.067-1.832-.435-2.761-.94a17.112 17.112 0 0 1-2.43-1.638.347.347 0 0 1-.096-.153.353.353 0 0 1 .253-.448l.005-.001c2.514-.637 6.306-1.531 8.205-1.979Z" fill="#E56441" stroke="#E56441"/><path d="m396.354 525.93.238.334a2.275 2.275 0 0 0 3.1.812l8.787-5.414a1.995 1.995 0 0 0 .84-2.565 2.162 2.162 0 0 0-1.279-1.236 2.172 2.172 0 0 0-1.773.137l-9.025 5.08a2.063 2.063 0 0 0-1.049 1.238 2.066 2.066 0 0 0 .161 1.614ZM426.709 512.047l-10.312.955a2.175 2.175 0 0 0-1.537.896 2.16 2.16 0 0 0-.349 1.743 1.996 1.996 0 0 0 2.151 1.632l10.306-.545a2.272 2.272 0 0 0 2.087-2.431l.007-.41a2.075 2.075 0 0 0-2.353-1.84Z" fill="#080B09"/><path d="M407.826 505.907s-5.147 9.794-14.485 12.698c-9.338 2.905-4.235 17.643-4.235 17.643s-6.403-6.37-13.763-2.784c-7.361 3.585-1.774 17.657 8.395 17.836l-2.766 15.834s-5.15-6.413-10.566-9.845c-5.417-3.432-24.874-16.753-16.279-34.298 0 0-6.725-24.635 11.719-37.408 18.444-12.772 34.408-7.952 34.408-7.952s4.397-6.975 14.589-5.551c10.192 1.425 12.542 19.803 9.167 26.45-3.375 6.647-8.875 9.472-16.184 7.377Z" fill="#93523E"/><path d="M330.984 604.1c12.971-11.83 16.801-4.571 20.55-3.636 0 0 12.496 4.443 9.754 15.174-2.898 11.355-34.04 85.148-34.04 85.148l-38.565-11.408 2.838-8.185 7.342-21.196 7.842-22.665.81-2.718 9.524-29.943s7.187 5.773 13.945-.571Z" fill="#5661AE"/><path d="M356.671 624.574c8.171-9.545 7.057-23.905-2.487-32.076s-23.905-7.057-32.075 2.487c-8.171 9.544-7.058 23.905 2.487 32.076 9.544 8.17 23.904 7.057 32.075-2.487ZM323.43 682.661l71.598 70.16a2.458 2.458 0 0 1 .076 3.289l-12.395 14.262a3.644 3.644 0 0 1-4.867.53l-82.171-59.666 27.759-28.575Z" fill="#5661AE"/><path d="M307.934 715.526c11.133 0 20.158-9.024 20.158-20.157 0-11.133-9.025-20.157-20.158-20.157-11.132 0-20.157 9.024-20.157 20.157 0 11.133 9.025 20.157 20.157 20.157Z" fill="#5661AE"/><path d="m424.418 669.146-38.857 107.653h-78.128a12.395 12.395 0 0 1 12.394-12.394h56.523l33.553-95.259h14.515Z" fill="#fff"/><path d="M424.418 669.146h104.824l-40.54 107.653H385.561l38.857-107.653Z" fill="url(#e)"/><path d="M570.787 318.068s17.466-3.679 23.006 4.815c5.54 8.494 11.08 24.451 23.637 22.382 12.557-2.069 22.159-43.803 34.716-43.433 12.557.369 7.017 27.699 20.682 28.068 13.665.369 10.341-15.142 21.421-15.142s7.386 33.239 21.79 33.608c14.404.37 12.926-42.841 34.716-42.103" stroke="#fff" stroke-width="5" stroke-miterlimit="10" stroke-linecap="round"/><path d="M519.801 312.326c8.895-21.849.331-45.983-19.128-53.905-19.459-7.922-42.444 3.368-51.339 25.217-8.895 21.849-.331 45.983 19.128 53.905 19.459 7.922 42.445-3.368 51.339-25.217Z" stroke="#FF967C" stroke-width="16.521" stroke-miterlimit="10" stroke-linecap="round"/><path d="M502.686 333.468c-10.267 6.772-22.848 8.706-34.224 4.075-19.459-7.922-28.023-32.056-19.128-53.905 8.895-21.849 31.88-33.139 51.339-25.217" stroke="#fff" stroke-width="16.521" stroke-miterlimit="10" stroke-linecap="round"/><path d="M583.915 255.889h76.856" stroke="#fff" stroke-width="10" stroke-miterlimit="10" stroke-linecap="round"/><path opacity=".6" d="M580.273 277.089h31.269" stroke="#fff" stroke-width="10" stroke-miterlimit="10" stroke-linecap="round"/><path d="M1165.78 782.813c-.22.024-.32.147-.2.246-.1.122-.1.122-.07.344a26.6 26.6 0 0 0-.99 4.67l18.96 15.239 2.1-2.359s-7-8.657-9.62-11.175c-1.13-1.11-2.14-2.122-3.15-3.133-.88-.913-1.67-1.949-2.43-2.763-1.06-1.455-4.13-.896-4.16-1.118-.12-.098-.44.049-.44.049Z" fill="#233B62"/><path d="m1022.41 650.402 18.31 17.743 102.37 98.86 1.87 1.703.81 1.257.12.099 14.5 21.97 1.62 2.514.54.838 9.81 14.967-8.08 4.02-2.34 1.152-3.3 1.593-5.21 2.697-.09.122-5.53 2.844-.27-.419-12.6-24.083a36.219 36.219 0 0 0-10.04-11.914l-111.32-85.215-21.158-16.199 29.988-34.549Z" fill="#FFCCB3"/><path d="M1158.99 770.881c-4.91-2.279-10.42-4.317-15.8-3.999 3.24 2.842 4.72 7.9 6.87 11.587 4.41 7.589 15.72 21.693 9.94 33.678-3.25 6.735-12.33 10.313-12.46 10.214-1.52 6.917-9.05 35.071 5.97 18.751 8.39-9.114 16.71-18.85 20.89-28.514 1.72-3.962-1.91-7.914-3.69-11.259-2.28-5.062-5.68-11.766-5.25-17.37l.09-.123c.25-.387 19.7 17.025 20.03 17.107.67-1.082 2.23-3.269 2.23-3.269s-27.89-26.456-28.82-26.803Z" fill="#1C85E8"/><path d="M949.52 862.977c-.175-.138-.332-.119-.313.037-.156.019-.156.019-.294.195a26.84 26.84 0 0 0-3.97 2.649l2.898 24.154 3.149-.219s1.053-11.082.934-14.72a410.414 410.414 0 0 1-.057-4.439c.007-1.271.17-2.561.195-3.675.263-1.778-2.329-3.531-2.191-3.707-.019-.156-.351-.275-.351-.275Z" fill="#233B62"/><path d="m939.635 668.071.675 25.482 4.045 142.257.145 2.523-.301 1.465.019.157-4.998 25.845-.6 2.93-.201.977-3.45 17.562-8.591-2.78-2.479-.814-3.474-1.171-5.604-1.709-.156.018-5.936-1.828.101-.489 7.833-26.026a36.283 36.283 0 0 0 1.152-15.54l-19.98-138.757-3.8-26.379 45.6-3.723Z" fill="#FFCCB3"/><path d="M953.008 849.697c-1.914-5.06-4.426-10.368-8.496-13.906.332 4.302-2.148 8.952-3.194 13.086-2.152 8.511-3.929 26.503-16.442 31.029-7.031 2.543-16.028-1.253-16.047-1.41-5.923 3.881-30.998 18.737-8.848 17.575 12.37-.649 25.127-1.789 34.875-5.771 3.997-1.633 4.168-6.995 5.234-10.631 1.912-5.212 4.164-12.386 8.39-16.091l.157-.019c.448-.104 2.174 25.944 2.353 26.234 1.234-.307 3.876-.783 3.876-.783s-1.433-38.411-1.858-39.313Z" fill="#1C85E8"/><path d="m912.054 476.878-36.189 152.82-.066 10.849 29.427 180.954 46.854-5.072-13.592-172.821 37.277-90.171-7.536-73.946-56.175-2.613Z" fill="#1F2D49"/><path d="M906.988 666.816c17.476 0 31.644-14.167 31.644-31.644 0-17.476-14.168-31.644-31.644-31.644-17.477 0-31.644 14.168-31.644 31.644 0 17.477 14.167 31.644 31.644 31.644Z" fill="#1F2D49"/><path d="m950.365 614.879-8.925-75.505-2.952 104.234 11.877-28.729Z" fill="#0D1B33"/><path d="M1009.74 476.401s16.87 28.346 17.09 52.084c.34 35.628-12.51 99.511-12.51 99.511l112.19 113.397-26.71 40.047s-95.73-79.431-136.235-117.16l-9.073-18.369-13.052-106.537 19.95-62.973h48.35Z" fill="#1F2D49"/><path d="m912.054 476.878 98.266 1.01 9.55 19.762-109.476-13.759 1.66-7.013Z" fill="#0D1B33"/><path d="M985.854 673.463c17.476 0 31.646-14.167 31.646-31.644 0-17.476-14.17-31.644-31.646-31.644-17.477 0-31.644 14.168-31.644 31.644 0 17.477 14.167 31.644 31.644 31.644ZM900.583 266.878s1.319 14.689-2.557 28.809c-3.876 14.12-33.223 44.02-7.198 68.384 26.025 24.363 57.863-40.975 57.863-40.975l-9.967-30.178-34.466-35.858-3.675 9.818ZM979.984 270.307s7.81 9.922 25.606 18.032c17.46 7.959 36.26 21.041 32.39 49.557-3.88 28.516-55.498 6.368-70.663-9.967-15.165-16.334-13.078-45.498-13.078-45.498l25.745-12.124Z" fill="#1F2D49"/><path d="M940.062 323.74s-19.81 7.838-22.834 10.257c-3.024 2.42-5.896 22.167-11.038 31.542-5.141 9.376-12.663 26.681-1.677 42.577 10.986 15.895 9.818 28.517 9.818 28.517l-2.338 39.874 94.677 1.745a5.89 5.89 0 0 0 6.06-6.419c-1.05-11.626-5.86-27.952-6.24-46.464-.51-25.088-.89-108.916-.89-108.916l-41.248-1.295c-8.308 1.433-24.29 8.582-24.29 8.582Z" fill="#FEBB94"/><path d="M989.364 350.72s-13.798 12.581-14.61 21.915c-.811 9.334-2.688 35.359-20.421 37.955-21.735 3.182-27.424 6.28-17.348 8.715 10.075 2.435 32.943-1.51 32.943 8.928 0 7.429 8.884 12.986 13.349 8.928 4.464-4.058 40.023-65.744 6.087-86.441Z" fill="#FF967C"/><path d="m822.953 361.265-7.48-9.575a17.04 17.04 0 0 0-6.071-5.34c-3.681-1.843-9.324-5.281-11.285-8.717-3.25-5.462-16.058-20.215-4.948-31.682 4.113-4.232 3.085-3.231 11.306-3.104 8.221.126 9.483 8.657 13.591 14.241 0 0 .923-6.441 5.464-9.384 4.542-2.943 1.528 15.032 5.022 21.844 3.493 6.812.67 9.387 8.947 21.355l-14.546 10.362Z" fill="#FFCCB3"/><path d="m803.224 303.83 6.681 15.157-6.681-15.157Z" fill="#E56441"/><path d="m803.224 303.83 6.681 15.157" stroke="#E56441" stroke-width=".947" stroke-linecap="round"/><path d="m794.511 306.525 9.257 16.14-9.257-16.14Z" fill="#E56441"/><path d="m794.511 306.525 9.257 16.14" stroke="#E56441" stroke-width=".947" stroke-linecap="round"/><path d="m789.045 317.137 7.297 9.635-7.297-9.635Z" fill="#E56441"/><path d="m789.045 317.137 7.297 9.635" stroke="#E56441" stroke-width=".947" stroke-linecap="round"/><path d="M816.347 320.523s-2.827 8.098-2.338 14.479l2.338-14.479Z" fill="#E56441"/><path d="M816.347 320.523s-2.827 8.098-2.338 14.479" stroke="#E56441" stroke-width=".947" stroke-linecap="round"/><path d="M922.041 331.389c-7.68 2.662-18.385 8.061-21.283 14.085l-25.597 58.312-42.629-64.774-16.143 17.003 39.811 82.341c7.275 18.107 25.755 24.91 39.141 5.395l21.388-33.593 5.312-78.769Z" fill="#FEBB94"/><path d="M911.125 381.586s-2.308-3.981-2.308 16.8l-13.475 45.365 21.387-33.593c17.158-23.068 3.603-29.229-5.604-28.572Z" fill="#FF967C"/><path d="m958.053 354.073-70.708 28.164a4.282 4.282 0 0 0-2.393 5.562l35.39 88.848a4.282 4.282 0 0 0 5.562 2.394l70.708-28.165a4.281 4.281 0 0 0 2.393-5.562l-35.39-88.848a4.281 4.281 0 0 0-5.562-2.393Z" fill="#1C85E8"/><path d="m898.134 390.594 29.157-11.614M902.537 401.033l13.29-5.294" stroke="#fff" stroke-width="4" stroke-miterlimit="10" stroke-linecap="round"/><path d="m937.555 302.853 1.113 31.169s-1.524 6.825 5.481 6.068c7.004-.757 16.435-6.273 21.736-12.331 5.301-6.058 4.939-6.544 2.667-10.52-2.272-3.975-12.938-34.276-12.938-34.276l-18.059 19.89Z" fill="#FFCCB3"/><path d="m937.714 305.467 12.916-8.225s-5.723 25.117-11.962 36.78l-.954-28.555Z" fill="#FCBA9F"/><path d="M902.889 256.209s-.206 31.019 13.177 46.63c8.728 10.18 17.909 8.83 33.224-7.93 14.042-15.367 16.011-23.376 16.011-23.376l-9.696-30.432s-51.14-13.122-52.716 15.108Z" fill="#FFCCB3"/><path d="M916.206 249.013s5.606 13.613 16.017 17.417c10.41 3.804 13.134 10.878 13.134 10.878s1.997-11.639 10.179-11.216c8.182.423 6.519 14.868 1.441 19.664 0 0 6.109 11.331 11.289 19.711l22.687-22.516s-11.689-13.513-14.259-24.386c-2.57-10.873-10.888-39.981-42.599-38.053-37.232 2.263-35.094 32.518-33.512 49.322 0 0 11.676-4.477 15.623-20.821Z" fill="#1F2D49"/><path d="m920.237 293.247 9.05-4.44a6.055 6.055 0 0 1-.017 2.008c-.254 1.403-1.118 3.106-3.69 4.212-1.651.535-3.059.007-4.092-.695a7.36 7.36 0 0 1-1.214-1.046l-.037-.039Z" fill="#E56441" stroke="#E56441"/><path d="M910.377 280.65c1.144-.283 1.734-1.878 1.318-3.564-.416-1.686-1.681-2.824-2.825-2.541-1.144.282-1.734 1.878-1.318 3.564.417 1.685 1.681 2.823 2.825 2.541ZM927.337 276.719c1.144-.282 1.734-1.878 1.317-3.564-.416-1.685-1.68-2.823-2.824-2.541-1.144.283-1.734 1.878-1.318 3.564.416 1.686 1.681 2.824 2.825 2.541ZM903.797 271.56l8.631-1.981a.628.628 0 0 0 .425-.704 2.018 2.018 0 0 0-1.093-1.138 2.016 2.016 0 0 0-1.579.004l-6.768 2.867c-.564.139-.32 1.126.384.952ZM932.777 263.834l-11.241 3.523a2.565 2.565 0 0 1 1.216-2.756c.31-.181.654-.295 1.011-.335l8.981-1.171c.282-.069.456.635.033.739Z" fill="#080B09"/><path d="m916.43 275.013-1.219 9.101 3.215 1.552" fill="#E56441"/><path d="m916.43 275.013-1.219 9.101 3.215 1.552" stroke="#E56441" stroke-width=".947" stroke-linecap="round"/><path d="m924.987 434.588-27.878 7.999-3.408 17.179 6.342 19.013s4.46-3 3.53-9.998c-.93-6.999 22.628-6.799 26.945-15.597" fill="#FFCCB3"/><path d="M988.669 339.902s-.183-23.614 18.731-23.617c12.69-.002 18.76 5.947 20.38 24.511 1.13 12.979 1.95 84.192 1.95 84.192s3.19 32.501-24.38 33.108l-79.604-2.384-1.797-22.241 69.393-6.917-4.673-86.652Z" fill="#FEBB94"/><path d="M931.105 336.949s7.178-2.043 6.014-9.094c-1.134-6.939-1.178-12.963 1.099-12.124 0 0 2.009 3.445 14.502-.384 12.411-3.686 11.633-7.944 11.633-7.944s1.756-1.556 3.068 2.438c1.31 3.994 4.635 15.054 11.664 14.258l1.9 20.615-37.383 12.305c-.082.143-17.36-16.594-12.497-20.07Z" fill="#FEBB94"/><path d="M626.198 748.332h23.52" stroke="#fff" stroke-width="5" stroke-miterlimit="10" stroke-linecap="round"/><path opacity=".5" d="M630.986 758.539h11.761" stroke="#fff" stroke-width="5" stroke-miterlimit="10" stroke-linecap="round"/><path d="m610.531 727.953 18.047-12.585 12.713 8.466 16.92-12.254" stroke="#fff" stroke-width="6.504" stroke-linecap="round" stroke-linejoin="round"/><path d="M645.203 706.239h17.999v17.81" stroke="#fff" stroke-width="6.504" stroke-linecap="round" stroke-linejoin="round"/><path d="M858.313 153.238h-69.755a5.465 5.465 0 0 1-4.473-2.036 5.466 5.466 0 0 1-1.037-4.805l10.721-55.12a8.716 8.716 0 0 1 8.17-6.84h69.755a5.473 5.473 0 0 1 5.51 6.84l-10.721 55.12a8.715 8.715 0 0 1-8.17 6.841Z" fill="#1C85E8"/><path d="m810.466 99.344 46.447.01a2.16 2.16 0 0 1 2.197 2.649l-.636 3.477a3.34 3.34 0 0 1-1.845 2.336l-25.446 12.247a2.7 2.7 0 0 1-2.552-.015l-20.934-12.618a2.174 2.174 0 0 1-.966-2.323l.57-3.114a3.341 3.341 0 0 1 3.165-2.649Z" fill="#fff"/><path d="m808.161 112.005 20.026 12.562a1.818 1.818 0 0 0 1.782 0l24.619-12.553c1.324-.675 2.658.181 2.409 1.546l-3.66 20.011a6.012 6.012 0 0 1-5.688 4.759l-42.174-.008a3.883 3.883 0 0 1-3.947-4.761l3.659-20.011a2.116 2.116 0 0 1 2.974-1.545Z" fill="#fff"/><path d="M874.105 98.874c7.973 0 14.436-6.464 14.436-14.437 0-7.973-6.463-14.437-14.436-14.437-7.974 0-14.437 6.464-14.437 14.437 0 7.973 6.463 14.437 14.437 14.437ZM875.115 403.765l11.97 17.785-6.383-30.385-5.587 12.6Z" fill="#FF967C"/></g><defs><linearGradient id="b" x1="669.415" y1="242.927" x2="687.678" y2="552.972" gradientUnits="userSpaceOnUse"><stop stop-color="#fff"/><stop offset="1" stop-color="#94B9FF"/></linearGradient><linearGradient id="c" x1="622.669" y1="334.5" x2="699.1" y2="870.254" gradientUnits="userSpaceOnUse"><stop stop-color="#fff"/><stop offset="1" stop-color="#94B9FF"/></linearGradient><linearGradient id="d" x1="820.5" y1="334.5" x2="896.93" y2="870.254" gradientUnits="userSpaceOnUse"><stop stop-color="#fff"/><stop offset="1" stop-color="#94B9FF"/></linearGradient><linearGradient id="e" x1="453.825" y1="668.89" x2="472.461" y2="898.307" gradientUnits="userSpaceOnUse"><stop stop-color="#fff"/><stop offset="1" stop-color="#94B9FF"/></linearGradient><clipPath id="a"><path fill="#fff" transform="translate(252 70)" d="M0 0h935.805v884.423H0z"/></clipPath></defs></svg>