<svg width="1440" height="1024" fill="none" xmlns="http://www.w3.org/2000/svg"><path fill="#fff" d="M0 0h1440v1024H0z"/><g clip-path="url(#a)"><path d="M720.103 969.224c293.877 0 532.107-6.086 532.107-13.594 0-7.507-238.23-13.594-532.107-13.594-293.872 0-532.103 6.087-532.103 13.594 0 7.508 238.231 13.594 532.103 13.594Z" fill="#F5F8FF"/><path d="M858.581 121H370.422c-7.251 0-13.13 5.879-13.13 13.13v321.33c0 7.252 5.879 13.13 13.13 13.13h488.159c7.252 0 13.13-5.878 13.13-13.13V134.13c0-7.251-5.878-13.13-13.13-13.13Z" fill="url(#b)"/><path d="M847.63 347.39h-90.956a6.109 6.109 0 0 0-6.109 6.109v98.709a6.109 6.109 0 0 0 6.109 6.109h90.956a6.109 6.109 0 0 0 6.109-6.109v-98.709a6.109 6.109 0 0 0-6.109-6.109Z" fill="#FEBB94"/><path d="M510.104 346.351H378.546a5.173 5.173 0 0 0-5.173 5.173v101.619a5.173 5.173 0 0 0 5.173 5.174h131.558a5.173 5.173 0 0 0 5.173-5.174V351.524a5.173 5.173 0 0 0-5.173-5.173ZM734.282 346.351H532.207a6.365 6.365 0 0 0-6.365 6.365v99.236a6.365 6.365 0 0 0 6.365 6.365h202.075a6.365 6.365 0 0 0 6.365-6.365v-99.236a6.365 6.365 0 0 0-6.365-6.365Z" fill="#fff"/><path d="M845.573 166.398H662.594a8.166 8.166 0 0 0-8.166 8.166v153.633a8.166 8.166 0 0 0 8.166 8.165h182.979a8.166 8.166 0 0 0 8.166-8.165V174.564a8.166 8.166 0 0 0-8.166-8.166Z" fill="#1C85E8"/><path d="M618.38 512.194c11.184-12.356 8.014-15.663 13.258-22.96 5.149-7.113 4.015-28.06 8.931-24.068 4.915 3.991 4.943 11.491 4.943 11.491 5.399-5.812 11.843-17.337 21.27-16.584 9.428.754 9.55 3.807 13.695 9.264 10.987 14.673-10.58 27.645-15.054 33.476-2.853 3.643-19.618 12.827-21.797 15.189l-9.343 8.413-15.903-14.221Z" fill="#FFCCB3"/><path d="m654.428 479.714 15.954-17.809M660.896 484.757l16.615-16.167M668.645 490.474l9.651-9.888" stroke="#EF6A77" stroke-width="1.078" stroke-linecap="round"/><path d="m450.862 612.167-93.57 335.895h19.061l108.153-335.895h-33.644Z" fill="#D1E8F7"/><path d="m450.862 612.167-6.869 24.661 35.851-10.182 4.662-14.479h-33.644Z" fill="#5CA4E6"/><path d="m1115.74 879.618-50.69 67.385a7.48 7.48 0 0 1-10.48 1.483l-4.71-3.539 59.69-79.356 4.71 3.539a7.482 7.482 0 0 1 2.91 4.937 7.455 7.455 0 0 1-1.43 5.551Z" fill="#5661AE"/><path d="m1067.93 840.158 18.27 14.853-18.56 28.649-20.61-15.727 20.9-27.775Z" fill="#BC775C"/><path d="m1076.04 847.395-22.76 24.829-5.54-4.369 21.32-26.193 6.98 5.733Z" fill="#93523E" stroke="#93523E"/><path d="M1083.75 853.169s-5.13 18.048-22.04 27.293l-15.27 59.702c.49 3.427 4.32 5.628 6.86 6.444a2.83 2.83 0 0 0 1.72-.007 2.79 2.79 0 0 0 1.39-1l54.19-72.034c.9-1.202 1.3-2.71 1.11-4.202a5.745 5.745 0 0 0-2.16-3.774c-4.73-3.712-12-9.308-15.14-11.228-4.87-2.969-8.33-3.656-10.66-1.194Z" fill="#1C85E8"/><path d="m1058.18 892.842 8.69-1.864c.32-.068.65-.057.96.032.31.089.59.254.83.479a1.942 1.942 0 0 1 .57 1.77 1.968 1.968 0 0 1-1.55 1.597l-10.67 2.153 1.17-4.167ZM1056.13 902.302l8.64-1.885a1.985 1.985 0 0 1 1.79.511c.24.225.41.505.51.813.1.309.12.638.07.957-.07.392-.26.754-.54 1.039-.27.285-.63.479-1.02.558l-10.52 2.182 1.07-4.175ZM1053.49 912.601l8.55-1.909a1.985 1.985 0 0 1 1.79.511 1.941 1.941 0 0 1 .57 1.77 1.973 1.973 0 0 1-1.55 1.596l-10.4 2.098 1.04-4.066Z" fill="#fff"/><path d="m894.212 761.627 144.668 116.555 33-38.461-126.488-118.67-51.18 40.576Z" fill="#1F2D49"/><path d="M971.808 745.833v78.311l67.072 54.038 9.63-60.388-76.702-71.961Z" fill="#0D1B33"/><path d="m907.05 547.348-23.78 189.628h66.487l57.753-188.677-100.46-.951Z" fill="#1F2D49"/><path d="m964.138 689.999 11.167-94.073h27.455l-38.622 94.073Z" fill="#0D1B33"/><path d="M1023.82 951.314h-84.322a7.488 7.488 0 0 1-7.49-7.491v-5.887h99.302v5.887c0 1.987-.79 3.892-2.19 5.297a7.5 7.5 0 0 1-5.3 2.194Z" fill="#5661AE"/><path d="m1026.61 889.381-.88 23.535-34.059 2.384.183-25.919h34.756Z" fill="#BC775C"/><path d="m1025.71 900.219-33.529-3.266.161-7.053 33.748 1.291-.38 9.028Z" fill="#93523E" stroke="#93523E"/><path d="M1025.73 909.851s-17.51 6.746-35.063-1.207l-56.892 23.684c-2.448 2.448-1.904 6.83-1.026 9.355a2.827 2.827 0 0 0 2.676 1.883h90.135a5.758 5.758 0 0 0 4.03-1.641 5.762 5.762 0 0 0 1.72-3.989c.12-6.018.22-15.187-.13-18.856-.55-5.671-2.09-8.854-5.45-9.229Z" fill="#1C85E8"/><path d="m978.648 913.261 6.713 5.824c.245.213.434.483.551.785a1.98 1.98 0 0 1-2.102 2.675 1.98 1.98 0 0 1-1.062-.484l-8.134-7.231 4.034-1.569ZM969.854 917.308l6.704 5.776a1.989 1.989 0 0 1 .668 1.737 1.979 1.979 0 0 1-1.069 1.524 1.974 1.974 0 0 1-2.213-.285l-8.068-7.096 3.978-1.656ZM960.041 921.394l6.663 5.682a1.989 1.989 0 0 1 .668 1.738 1.98 1.98 0 0 1-2.219 1.722 1.98 1.98 0 0 1-1.062-.484l-7.925-7.045 3.875-1.613Z" fill="#fff"/><path d="M1047.85 548.299a252.81 252.81 0 0 0 0 28.872c2.21 31.084-4.86 121.857-4.8 133.801.05 11.945-7.81 180.178-7.81 180.178h-47.804s-12.219-144.581-12.502-161.128c-.282-16.546-3.126-181.043-3.126-181.043l76.042-.68Z" fill="#1F2D49"/><path d="m905.61 558.83 142.24 18.341v-28.872l-141.503 4.653-.737 5.878Z" fill="#0D1B33"/><path d="M916.514 770.219c18.36 0 33.243-14.883 33.243-33.243 0-18.36-14.883-33.244-33.243-33.244-18.36 0-33.243 14.884-33.243 33.244s14.883 33.243 33.243 33.243Z" fill="#1F2D49"/><path d="M1164.25 595.926H291.49v16.241h872.76v-16.241Z" fill="url(#c)"/><path fill-rule="evenodd" clip-rule="evenodd" d="M710.291 930.966c-12.896-4.557-26.188-9.254-38.441-8.383a1.91 1.91 0 0 0-1.733 2.339l5.132 21.678a1.894 1.894 0 0 0 2.029 1.453l83.311-8.045c6.143-.593 9.107-4.231 9.547-9.244a.898.898 0 0 0-1.439-.776 43.986 43.986 0 0 1-32.112 8.422c-8.225-1.059-17.16-4.216-26.294-7.444Z" fill="#5661AE"/><path fill-rule="evenodd" clip-rule="evenodd" d="M665.223 868.418s8.594 34.066 8.835 37.722a41.414 41.414 0 0 1-.385 6.074c-.384 3.617-.811 7.648-.169 10.292 11.79-.366 24.47 4.113 36.787 8.464 9.134 3.226 18.067 6.382 26.293 7.44a44.01 44.01 0 0 0 30.813-7.478c-.375-6.221-6.275-11.465-17.158-11.359-19.507.189-30.303-.161-41.064-13.296-7.648-9.334-11.338-48.709-11.338-48.709l-32.614 10.85Z" fill="#FFCCB3"/><path fill-rule="evenodd" clip-rule="evenodd" d="M706.686 900.837c-3.594.841-17.894 4.124-31.846 6.395-2.711.442-3.571 6.041-1.522 8.824a46.262 46.262 0 0 1 3.72 6.482 70.565 70.565 0 0 1 14.377 2.356c-2.478-5.311.172-8.786 5.282-10.042 4.035-.992 13.773-1.161 18.814-1.179a1.453 1.453 0 0 0 1.313-.848 1.45 1.45 0 0 0-.218-1.548l-8.485-9.967a1.45 1.45 0 0 0-1.435-.473ZM757.71 935.998c-8.921 3.456-15.161 2.738-15.161 2.738l-1.902-19.704 15.351-.77 1.712 17.736Z" fill="#fff"/><path d="M657.107 730.974c14.798-4.438 23.196-20.033 18.757-34.83-4.438-14.798-20.032-23.196-34.83-18.758-14.798 4.439-23.196 20.033-18.757 34.831 4.438 14.798 20.032 23.196 34.83 18.757Z" fill="#FFCCB3"/><path d="m657.347 677.457-46.372-15.874-21.584 58.148 59.99 10.444 7.966-52.718Z" fill="#FFCCB3"/><path d="m676.799 700.465 23.541 175.92-30.537 10.566L623.64 719.92l53.159-19.455Z" fill="#FFCCB3"/><path fill-rule="evenodd" clip-rule="evenodd" d="M580.103 943.163c-12.183-6.218-24.739-12.627-37-13.38a1.904 1.904 0 0 0-1.497.576 1.919 1.919 0 0 0-.529 1.514l2.227 22.166a1.899 1.899 0 0 0 1.82 1.707l83.645 3.013c6.167.223 9.585-2.992 10.683-7.904a.903.903 0 0 0-.831-1.076.906.906 0 0 0-.494.117 43.98 43.98 0 0 1-32.942 4.113c-8.014-2.134-16.454-6.442-25.082-10.846Z" fill="#5661AE"/><path fill-rule="evenodd" clip-rule="evenodd" d="M543.677 875.217s4.027 34.902 3.784 38.558a41.556 41.556 0 0 1-1.183 5.97c-.858 3.535-1.813 7.474-1.525 10.179 11.735 1.192 23.713 7.305 35.349 13.243 8.629 4.403 17.068 8.709 25.082 10.843a44.01 44.01 0 0 0 31.53-3.349c.449-6.216-4.707-12.192-15.51-13.523-19.361-2.385-30.017-4.156-38.951-18.596-6.351-10.261-4.815-49.779-4.815-49.779l-33.761 6.454Z" fill="#FCBA9F"/><path fill-rule="evenodd" clip-rule="evenodd" d="M580.503 912.821c-3.674.36-18.282 1.729-32.412 2.14-2.746.08-4.336 5.517-2.671 8.546a46.36 46.36 0 0 1 2.832 6.916 70.557 70.557 0 0 1 13.94 4.232c-1.756-5.592 1.33-8.687 6.56-9.259 4.131-.451 13.807.666 18.806 1.313a1.454 1.454 0 0 0 1.636-1.45 1.45 1.45 0 0 0-.235-.78l-7.096-10.999a1.448 1.448 0 0 0-1.36-.659ZM626.444 954.405c-9.3 2.249-15.39.715-15.39.715l.713-19.783 15.319 1.261-.642 17.807Z" fill="#fff"/><path d="M553.76 737.904c15.254-2.449 25.635-16.799 23.187-32.053-2.448-15.254-16.798-25.635-32.052-23.187-15.254 2.448-25.635 16.798-23.187 32.052 2.448 15.254 16.798 25.636 32.052 23.188Z" stroke="#5CA4E6" stroke-width="1.097" stroke-miterlimit="10"/><path d="m577.304 710.258.133 177.488-31.663 6.446-23.731-171.66 55.261-12.274Z" fill="#FCBA9F"/><path d="M494.415 645.456s-8.513 41.662 2.643 59.071c14.122 22.036 31.394 25.411 44.158 25.648l68.962-5.948s-.456-39.65 25.085-54.464c0 0-104.679-38.634-140.848-24.307Z" fill="#5661AE"/><path d="m467.868 432.91-5.478 27.977-31.704-2.152 6.074-29.738 31.108 3.913Z" fill="#FFCCB3"/><path d="m467.549 434.537-2.661 13.591s-7.286-6.21-8.693-15.902l11.354 2.311Z" fill="#FCBA9F"/><path d="M420.912 466.69s7.221-18.841 11.53-16.553c10.242 5.437 25.202 4.429 31.825 1.161 3.969-1.958 4.12 15.392 4.12 15.392h-47.475Z" fill="#FEBB94"/><path d="m420.912 466.69-30.424 4.075a3.235 3.235 0 0 0-2.789 3.547l21.242 201.517 109-10.7-13.49-191.76-36.064-6.679h-47.475Z" fill="#FEBB94"/><path d="m498.478 524.11-8.502-15.463 2.092 15.463h6.41Z" fill="#FF967C"/><path d="M502.56 473.019c11.494 1.763 21.129 9.422 24.348 16.114l28.434 64.775 69.822-55.84 19.849 20.906-62.763 77.542c-12.622 16.623-34.455 23.463-49.325 1.786l-23.758-37.316-6.607-87.967Z" fill="#FEBB94"/><path d="m555.342 553.908 7.944 15.616 6.046-26.806-13.99 11.19Z" fill="#FF967C"/><path d="M390.721 470.734s-8.21-.145-15.112 11.934c-6.903 12.078-34.857 85.242-34.857 85.242s-12.769 27.609 13.115 28.644h54.182l-17.328-125.82Z" fill="#FEBB94"/><path d="m396.834 524.11-2.268-10.133-5.708 10.133h7.976Z" fill="#FF967C"/><path d="M540.171 730.105h-118.33a15.48 15.48 0 0 1-15.327-13.293l-25.007-175.03a15.483 15.483 0 0 1 15.327-17.672h118.331a15.484 15.484 0 0 1 15.326 13.292l25.007 175.031a15.467 15.467 0 0 1-.475 6.561 15.473 15.473 0 0 1-14.852 11.111Z" fill="#5CA4E6"/><path d="M532.195 730.105h90.621a4.415 4.415 0 0 0 4.412-4.444 4.415 4.415 0 0 0-3.475-4.28l-73.359-15.948-18.199 24.672Z" fill="#5CA4E6"/><path d="M532.195 730.105h-118.33a15.48 15.48 0 0 1-15.327-13.293l-25.006-175.03a15.486 15.486 0 0 1 8.898-16.275 15.48 15.48 0 0 1 6.428-1.397h118.331a15.484 15.484 0 0 1 15.326 13.292l25.007 175.031a15.482 15.482 0 0 1-15.327 17.672Z" fill="url(#d)"/><path d="M1015.46 569.246s-6.39 12.073-7.95 13.458c-1.55 1.386-27.232 4.553-32.205 6.334-4.973 1.781-7.348 4.474-7.348 6.888h60.363s1.56-1.456 2.69-6.097c1.12-4.64 3.09-6.608 3.09-6.608l-18.64-13.975Z" fill="#BC775C"/><path d="M928.694 379.049c3.97-19.598-5.366-19.093-8.473-22.209 0 0-11.656-9.612-20.537-.652-9.401 9.477-63.289 83.097-63.289 83.097l33.718 31.011 6.337-7.563 16.418-19.58 17.56-20.928 2.181-2.382 23.689-26.831s-9.849-3.645-7.604-13.963Z" fill="#5661AE"/><path d="M942.796 382.389c4.545-13.57-2.771-28.256-16.341-32.801-13.571-4.545-28.256 2.771-32.802 16.341-4.545 13.571 2.772 28.256 16.342 32.801 13.57 4.546 28.256-2.771 32.801-16.341Z" fill="#5661AE"/><path d="M912.299 419.739c.679-4.097 2.04-12.289 3.503-19.755l7.78-36.138s-20.894 30.88-30.52 52.39c-7.128 16.119-15.398 32.547-16.766 46.445l16.416-19.581 17.56-20.927 2.027-2.434Z" fill="#465393"/><path d="M802.715 356.401c-8.012-14.614-4.162-17.094-7.57-25.409-3.358-8.113 2.604-28.226-3.104-25.484-5.707 2.743-7.473 10.031-7.473 10.031-3.904-6.906-7.499-19.611-16.844-21.065-9.345-1.454-10.172 1.487-15.47 5.833-14.091 11.725 3.878 29.345 6.877 36.055 1.931 4.206 16.108 17.029 17.679 19.831l7.136 10.352 18.769-10.144Z" fill="#BC775C"/><path d="m775.185 316.445-11.387-21.025M767.724 319.849l-12.411-19.58M758.86 323.613l-7.094-11.858M777.999 334.953c.06-7.28 4.429-16.089 4.429-16.089" stroke="#93523E" stroke-width="1.078" stroke-linecap="round"/><path d="m870.398 438.699-68.564-91.309a2.8 2.8 0 0 0-3.703-.576l-17.954 11.874a4.15 4.15 0 0 0-1.322 5.417l55.138 101.685 36.405-27.091Z" fill="#5661AE"/><path d="M853.739 477.265c12.681 0 22.961-10.28 22.961-22.961s-10.28-22.961-22.961-22.961-22.961 10.28-22.961 22.961 10.28 22.961 22.961 22.961Z" fill="#5661AE"/><path d="M949.675 336.2s-33.476 10.649-40.081 13.411c-6.605 2.763-7.046 13.815-7.486 21.643-.308 5.485 5.883 95.551 6.29 147.713.087 11.144-1.991 18.215-3.326 24.408-1.334 6.194 0 9.565 0 9.565l143.438 1.283s-4.3-181.237-5.18-187.683c-.88-6.447 6.04-11.999-1.46-15.244L987.097 336.2h-37.422Z" fill="#fff"/><path d="M931.675 342.013s5.465 25 9.046 45.008c3.581 20.008 4.671 185.644 4.671 185.644s-41.915-8.149-47.592-17.778c-5.678-9.63 5.258-52.895 6.109-92.206.852-39.311-7.423-100.317 1.265-110.901 0 .001 2.228-2.208 26.501-9.767ZM1002.12 340.406s-19.887 41.436-18.671 54.065c1.217 12.629 1.286 120.33 0 142.816a218.353 218.353 0 0 1-6.224 40.541s54.255 3.842 75.215-2.72c0 0 9.96-62.656 3.42-85.039-6.53-22.383-11.52-138.713-11.52-138.713l-42.22-10.95Z" fill="#5661AE"/><path d="M1016.8 396.089s2.03 75.095 1.61 100.126c-.26 15.598-18.1 22.204-18.15 31.235-.03 5.343 14.08-.912 17.89 4.612 3.8 5.523-2.7 22.825-2.7 22.825l33.06-.664 13.25-64.269-27.91-97.73-17.05 3.865Z" fill="#465393"/><path d="m950.363 319.462-3.105 34.997s-.828 5.436 8.613 7.156c7.497 1.365 23.076-7.444 26.593-10.346 7.816-6.45 8.538-10.353 7.712-13.342-1.183-4.283-5.05-34.463-5.05-34.463l-34.763 15.998Z" fill="#BC775C"/><path d="m948.324 348.103 1.913-21.571 16.664-8.231-18.577 29.802Z" fill="#93523E" stroke="#93523E"/><path d="M931.839 253.224s-6.384 28.593-7.233 48.066c-.857 19.647 6.163 23.388 14.867 24.855 6.865 1.157 17.544 1.241 24.26-2.112 12.244-6.115 32.347-20.956 34.978-23.835 4.079-4.458 3.799-24.341-11.763-29.258-11.317-3.577-40.172-33.942-55.109-17.716Z" fill="#BC775C"/><path d="M931.902 256.273c9.283 3.639 26.755 1.248 36.352 4.363 9.584 3.123.863 6.42 1.281 15.679.269 5.997.725 17.457 4.405 17.305 3.68-.151 5.848-13.166 13.609-12.67 7.759.506 11.419 3.82 11.248 8.783-.167 4.954-5.744 9.271-10.143 11.563-5.507 2.852-7.78 1.656-7.78 1.656s6.198 22.82 7.134 21.916c0 0 6.685-3.773 7.891-10.378 0 0 8.871-1.922 6.911-10.795 0 0 5.52-1.773 2.9-6.91 0 0 14.28-9.602 6.84-21.352 0 0 6.77-6.756-1.32-9.613 0 0 10.72-15.662-4.53-19.001 0 0 1.02-7.372-5.96-7.091 0 0-3.047-12.68-18.278-7.679a12.603 12.603 0 0 0-8.373-11.511c-8.626-3.474-14.24 1.307-14.24 1.307s-9.053-7.384-13.82 3.442c0 0-6.847-3.5-11.98.219-5.141 3.707-2.642 11.478-2.642 11.478s-5.875-1.377-8.019 3.489c-3.028 6.847 1.224 9.342 1.224 9.342s-9.565 11.308 3.886 22.019l3.404-15.561Z" fill="#493212"/><path d="M955.264 284.501c.505-2.313-.314-4.456-1.829-4.787-1.515-.331-3.152 1.276-3.657 3.588-.506 2.312.313 4.455 1.828 4.786 1.515.331 3.153-1.275 3.658-3.587ZM934.418 279.806c.505-2.312-.313-4.455-1.828-4.786-1.515-.331-3.153 1.275-3.658 3.588-.505 2.312.313 4.455 1.828 4.786 1.515.331 3.153-1.275 3.658-3.588Z" fill="#080B09"/><path d="M938.539 285.946s2.589 4.986-1.152 5.062c-3.574-.05-5.656 2.047-2.051 5.086" stroke="#93523E" stroke-width="1.078" stroke-linecap="round"/><path d="m935.889 300.704.016.002.016.001c2.217.159 6.644.478 9.587.739h.005a.474.474 0 0 1 .333.762c-.647.713-1.499 1.561-2.446 2.292-.957.739-1.978 1.333-2.961 1.569-.962.232-1.869.119-2.681-.532-.836-.672-1.636-1.965-2.233-4.24l-.01-.039-.016-.037a.362.362 0 0 1-.029-.192.363.363 0 0 1 .226-.3.364.364 0 0 1 .193-.025Z" fill="#93523E" stroke="#93523E"/><path d="m962.528 276.881-.208.419a2.59 2.59 0 0 1-3.338 1.475l-10.863-4.496a2.275 2.275 0 0 1-1.41-2.733 2.467 2.467 0 0 1 2.206-1.921c.348-.029.698.016 1.027.133l11.07 4.078a2.365 2.365 0 0 1 1.516 3.045ZM925.875 266.768l11.771-.793a2.48 2.48 0 0 1 2.448 1.601c.122.327.173.676.15 1.025a2.274 2.274 0 0 1-2.123 2.225l-11.689 1.253a2.592 2.592 0 0 1-2.788-2.355l-.081-.46a2.37 2.37 0 0 1 2.312-2.496Z" fill="#080B09"/><path d="M1045.42 369.364c-14.78-13.475-19.14-5.206-23.41-4.141 0 0-14.23 5.061-11.11 17.284 3.3 12.934 38.77 96.991 38.77 96.991l44.76-10.596-4.06-11.722-8.36-24.145-8.93-25.817-.93-3.096-10.85-34.108s-8.18 6.577-15.88-.65Z" fill="#5661AE"/><path d="M1052.7 395.518c10.87-9.307 12.14-25.665 2.83-36.536-9.31-10.872-25.67-12.14-36.54-2.833-10.87 9.307-12.14 25.665-2.83 36.536 9.31 10.872 25.66 12.14 36.54 2.833ZM1049.33 467.686l-39.59 107.104c-.21.658-.17 1.372.11 2.004.28.632.78 1.138 1.42 1.42l19.7 8.655c.95.404 2.02.441 2.99.104a4.14 4.14 0 0 0 2.28-1.928l55.59-101.442-42.5-15.917Z" fill="#5661AE"/><path d="M1071.47 496.192c12.68 0 22.96-10.28 22.96-22.961s-10.28-22.961-22.96-22.961c-12.68 0-22.96 10.28-22.96 22.961s10.28 22.961 22.96 22.961Z" fill="#5661AE"/><path d="M451.502 730.105h86.265a35.883 35.883 0 0 1-35.884 35.884h-14.496a35.886 35.886 0 0 1-35.885-35.884Z" fill="#E7EFFF"/><path d="M496.55 765.989h-3.83v172.492h3.83V765.989ZM492.72 938.481l-52.582 17.039h108.178l-51.766-17.039h-3.83Z" fill="#5CA4E6"/><path d="m321.906 612.167-93.57 335.895h19.061l108.152-335.895h-33.643Z" fill="#E7EFFF"/><path d="m321.906 612.167-6.87 24.661 35.851-10.182 4.662-14.479h-33.643Z" fill="#96BAFD"/><path d="m1119.57 612.167 93.57 335.895h-19.06l-108.16-335.895h33.65Z" fill="#D1E8F7"/><path d="m1119.57 612.167 5.25 18.854-34.05-3.803-4.85-15.051h33.65Z" fill="#5CA4E6"/><path d="M469.307 373.601s12.582 22.703 16.946 32.073c4.364 9.369 5.856 19.477-1.412 24.129-9.888 6.331-20.83 4.924-32.622 3.607-10.208-1.141-22.999-29.864-21.432-36.916 1.567-7.052 19.319-35.339 38.52-22.893Z" fill="#FFCCB3"/><path d="M478.688 399.623c.917-.741.775-2.436-.317-3.786s-2.719-1.845-3.636-1.104c-.916.741-.774 2.436.318 3.786 1.091 1.351 2.719 1.845 3.635 1.104ZM465.135 396.171l9.6-6.827a2.57 2.57 0 0 0-3.809-.094l-6.36 6.448c-.226.183.23.747.569.473Z" fill="#080B09"/><path d="M484.437 413.714a8.13 8.13 0 0 1-8.589 0" stroke="#EF6A77" stroke-miterlimit="10" stroke-linecap="round"/><path d="m460.283 387.218 20.557-10.397s-7.455-24.248-34.764-26.781c-20.035-1.859-38.657 9.187-45.873 26.443-7.217 17.257-1.046 45.688 17.256 52.514 15.481 5.773 14.983 21.14 14.983 21.14l22.668-29.727s-15.683-7.63-11.922-16.943c5.098-12.626 17.91 1.97 17.91 1.97l-8.669-25.231 7.854 7.012Z" fill="#1F2D49"/><path d="M482.008 397.178s3.429 4.467 5.504 5.329c2.074.862.217 4.035-1.165 4.476-1.382.441-5.127-7.696-4.339-9.805Z" fill="#FFCCB3"/><path d="M397.26 421.536c13.453 0 24.358-10.905 24.358-24.358 0-13.452-10.905-24.358-24.358-24.358-13.452 0-24.358 10.906-24.358 24.358 0 13.453 10.906 24.358 24.358 24.358Z" fill="#0D1B33"/><path d="M394.566 422.606c13.453 0 24.358-10.905 24.358-24.358 0-13.452-10.905-24.358-24.358-24.358-13.452 0-24.358 10.906-24.358 24.358 0 13.453 10.906 24.358 24.358 24.358Z" fill="#1F2D49"/><path d="M633.476 166.398H381.487a8.114 8.114 0 0 0-8.114 8.114v153.574a8.114 8.114 0 0 0 8.114 8.114h251.989a8.114 8.114 0 0 0 8.114-8.114V174.512a8.114 8.114 0 0 0-8.114-8.114Z" fill="#FEBB94"/><path d="M547.68 370.477h13.473" stroke="#D4DCF4" stroke-width="12" stroke-miterlimit="10" stroke-linecap="round"/><path d="M590.807 370.477h125.456" stroke="#5661AE" stroke-width="12" stroke-miterlimit="10" stroke-linecap="round"/><path d="M547.68 399.986h13.473" stroke="#D4DCF4" stroke-width="12" stroke-miterlimit="10" stroke-linecap="round"/><path d="M590.807 399.986h58.412" stroke="#5661AE" stroke-width="12" stroke-miterlimit="10" stroke-linecap="round"/><path d="M547.68 430.012h13.473" stroke="#D4DCF4" stroke-width="12" stroke-miterlimit="10" stroke-linecap="round"/><path d="M590.807 430.012h100.452" stroke="#5661AE" stroke-width="12" stroke-miterlimit="10" stroke-linecap="round"/><path d="M391.209 257.498s22.206-4.677 29.249 6.122c7.043 10.799 14.086 31.086 30.051 28.455 15.964-2.63 23.669-55.691 39.633-55.222 15.964.47 13.425 35.219 30.798 35.688 17.373.47 12.531-19.42 24.13-18.876 14.071.659 12.494 41.884 30.806 42.353 18.312.47 16.434-54.466 44.137-53.527" stroke="#fff" stroke-width="6.357" stroke-miterlimit="10" stroke-linecap="round"/><path d="M398.29 192.103h44.334" stroke="#fff" stroke-width="10.083" stroke-miterlimit="10" stroke-linecap="round"/><path opacity=".4" d="M398.29 212.793h91.619" stroke="#fff" stroke-width="10.083" stroke-miterlimit="10" stroke-linecap="round"/><path opacity=".4" d="M754.084 280.202c15.917 0 28.821-12.904 28.821-28.822 0-15.917-12.904-28.821-28.821-28.821-15.918 0-28.822 12.904-28.822 28.821 0 15.918 12.904 28.822 28.822 28.822Z" fill="#fff"/><path d="M745.167 243.445v18.293a2.92 2.92 0 0 0 4.324 2.563l16.722-9.146a2.928 2.928 0 0 0 1.519-2.563 2.923 2.923 0 0 0-1.519-2.564l-16.722-9.146a2.925 2.925 0 0 0-2.892.05 2.922 2.922 0 0 0-1.432 2.513Z" fill="#fff"/><path d="M370.828 121h487.347a13.536 13.536 0 0 1 13.536 13.536v20.391H357.292v-20.391c0-3.59 1.426-7.033 3.965-9.571a13.532 13.532 0 0 1 9.571-3.965Z" fill="#5CA4E6"/><path d="M1164.25 595.926h-143.68v16.241h143.68v-16.241Z" fill="#96BAFD"/><path d="m990.611 612.167 93.569 335.895h-19.06L956.968 612.167h33.643Z" fill="#E7EFFF"/><path d="m990.611 612.167 6.87 24.661-35.851-10.182-4.662-14.479h33.643Z" fill="#5CA4E6"/><path d="M1111.76 323.175c38.98 0 70.58-31.601 70.58-70.583 0-38.983-31.6-70.584-70.58-70.584-38.99 0-70.59 31.601-70.59 70.584 0 38.982 31.6 70.583 70.59 70.583Z" fill="#FEBB94"/><path d="M1136.91 250.876a25.162 25.162 0 0 0-13.34-22.219 25.181 25.181 0 0 0-13.13-2.92 25.119 25.119 0 0 0-12.75 4.254 25.201 25.201 0 0 0-8.75 10.214 25.122 25.122 0 0 0-2.24 13.26 25.17 25.17 0 0 0 4.9 12.52 25.191 25.191 0 0 0 10.66 8.21v8.26h18.96v-8.26a25.137 25.137 0 0 0 11.4-9.267 25.131 25.131 0 0 0 4.29-14.052v0ZM1102.26 282.455h19.03v4.051a6.45 6.45 0 0 1-1.9 4.576 6.461 6.461 0 0 1-4.57 1.896h-6.09c-1.72 0-3.36-.682-4.58-1.896a6.483 6.483 0 0 1-1.89-4.576v-4.051 0Z" stroke="#fff" stroke-width="3.718" stroke-linecap="round" stroke-linejoin="round"/><path d="M1107.49 282.455v-28.897a2.61 2.61 0 0 0-.77-1.844 2.603 2.603 0 0 0-1.84-.764h-.08c-.69 0-1.36.275-1.84.764a2.61 2.61 0 0 0-.77 1.844v0c0 .342.07.681.2.998.13.316.32.603.57.846.24.242.53.434.84.565.32.131.66.198 1 .198h13.88c.34 0 .68-.067 1-.198.31-.131.6-.323.84-.565.25-.243.44-.53.57-.846.13-.317.2-.656.2-.998v0a2.61 2.61 0 0 0-.77-1.844 2.603 2.603 0 0 0-1.84-.764h-.23c-.69 0-1.35.275-1.84.764a2.61 2.61 0 0 0-.77 1.844v28.897M1111.77 212.205v6.46M1088.48 218.428l3.23 5.595M1071.43 235.461l5.59 3.23M1152.08 235.516l-5.59 3.23M1135.05 218.46l-3.23 5.594" stroke="#fff" stroke-width="3.718" stroke-linecap="round" stroke-linejoin="round"/><path d="M336.066 166.398h-52.367a6.62 6.62 0 0 0-6.619 6.62v52.366a6.62 6.62 0 0 0 6.619 6.62h52.367a6.62 6.62 0 0 0 6.619-6.62v-52.366a6.62 6.62 0 0 0-6.619-6.62ZM336.066 247.399h-52.367a6.62 6.62 0 0 0-6.619 6.619v52.367a6.618 6.618 0 0 0 6.619 6.619h52.367a6.618 6.618 0 0 0 6.619-6.619v-52.367a6.62 6.62 0 0 0-6.619-6.619Z" fill="#1C85E8"/><path d="M331.231 271.359a15.688 15.688 0 0 0-.997-5.207 11.016 11.016 0 0 0-2.478-3.803 11.016 11.016 0 0 0-3.803-2.478 15.739 15.739 0 0 0-5.207-.997c-2.298-.109-3.027-.135-8.855-.135s-6.558.026-8.847.126c-1.78.035-3.54.372-5.207.998a10.988 10.988 0 0 0-6.281 6.281 15.704 15.704 0 0 0-.997 5.207c-.109 2.298-.135 3.027-.135 8.855s.026 6.557.126 8.846a15.69 15.69 0 0 0 .998 5.208 11.002 11.002 0 0 0 6.281 6.28c1.666.625 3.427.963 5.207.998 2.289.101 3.019.126 8.847.126 5.827 0 6.557-.025 8.846-.126a15.68 15.68 0 0 0 5.207-.998 10.977 10.977 0 0 0 6.281-6.28c.625-1.667.962-3.428.998-5.208.1-2.289.126-3.018.126-8.846s-.009-6.557-.11-8.847Zm-3.865 17.526a11.78 11.78 0 0 1-.738 3.983 7.12 7.12 0 0 1-4.075 4.075 11.81 11.81 0 0 1-3.983.738c-2.264.101-2.943.126-8.671.126-5.727 0-6.414-.025-8.67-.126a11.751 11.751 0 0 1-3.983-.738 6.587 6.587 0 0 1-2.465-1.602 6.66 6.66 0 0 1-1.602-2.465 11.805 11.805 0 0 1-.738-3.983c-.101-2.264-.126-2.943-.126-8.67 0-5.728.025-6.415.126-8.671.014-1.36.263-2.708.738-3.983a6.523 6.523 0 0 1 1.61-2.465 6.66 6.66 0 0 1 2.465-1.602 11.83 11.83 0 0 1 3.983-.738c2.264-.1 2.944-.125 8.671-.125 5.735 0 6.414.025 8.67.125a11.78 11.78 0 0 1 3.983.738 6.595 6.595 0 0 1 2.465 1.602 6.668 6.668 0 0 1 1.602 2.465 11.81 11.81 0 0 1 .738 3.983c.101 2.264.126 2.943.126 8.671 0 5.727-.025 6.398-.126 8.662Z" fill="#fff"/><path d="M309.891 269.179a11.023 11.023 0 0 0-10.187 6.807 11.028 11.028 0 1 0 21.214 4.22 11.029 11.029 0 0 0-11.027-11.027Zm0 18.18a7.152 7.152 0 1 1 0-14.304 7.152 7.152 0 0 1 0 14.304ZM323.928 268.743a2.578 2.578 0 0 1-1.589 2.379 2.575 2.575 0 0 1-2.416-4.519 2.575 2.575 0 0 1 4.005 2.14ZM316.384 187.821h3.739v-6.513a48.36 48.36 0 0 0-5.447-.288c-5.392 0-9.085 3.391-9.085 9.624v5.735h-5.949v7.281h5.949v18.319h7.294v-18.317h5.709l.906-7.281h-6.616v-5.016c.001-2.104.568-3.544 3.5-3.544Z" fill="#fff"/></g><defs><linearGradient id="b" x1="601.695" y1="120.174" x2="656.027" y2="861.822" gradientUnits="userSpaceOnUse"><stop stop-color="#fff"/><stop offset="1" stop-color="#94B9FF"/></linearGradient><linearGradient id="c" x1="706.141" y1="595.887" x2="706.211" y2="630.727" gradientUnits="userSpaceOnUse"><stop stop-color="#fff"/><stop offset="1" stop-color="#94B9FF"/></linearGradient><linearGradient id="d" x1="456.188" y1="523.62" x2="511.893" y2="958.37" gradientUnits="userSpaceOnUse"><stop stop-color="#fff"/><stop offset="1" stop-color="#94B9FF"/></linearGradient><clipPath id="a"><path fill="#fff" transform="translate(188 121)" d="M0 0h1064.21v848.224H0z"/></clipPath></defs></svg>