<svg width="1080" height="1080" fill="none" xmlns="http://www.w3.org/2000/svg"><path fill="#fff" d="M0 0h1080v1080H0z"/><path d="M677.355 372.833H354V706.86h323.355V372.833Z" fill="#FEBB94"/><path d="M375.484 325.955h280.387a21.485 21.485 0 0 1 21.484 21.484v25.395H354v-25.395a21.486 21.486 0 0 1 21.484-21.484Z" fill="#1C85E8"/><path d="M402.561 349.394h92.11" stroke="#fff" stroke-width="6.628" stroke-miterlimit="10" stroke-linecap="round"/><path d="M354 706.86h323.355v81.127a15.186 15.186 0 0 1-15.186 15.186H369.186A15.186 15.186 0 0 1 354 787.987V706.86Z" fill="#fff"/><path d="M373.696 728.341a23.702 23.702 0 0 1-4.102-3.194 8.162 8.162 0 0 1-1.952-3.113c-.733-2.278.123-4.887 2.519-5.659a4.083 4.083 0 0 1 1.923-.139c.643.109 1.251.37 1.772.762a4.069 4.069 0 0 1 3.695-.623 4.34 4.34 0 0 1 2.525 5.659 8.162 8.162 0 0 1-1.952 3.113 23.702 23.702 0 0 1-4.102 3.194l-.16.099-.166-.099Z" stroke="#1C85E8" stroke-width="1.022" stroke-linecap="round" stroke-linejoin="round"/><path fill-rule="evenodd" clip-rule="evenodd" d="M403.622 723.257a.793.793 0 0 1-.779-.951.79.79 0 0 1 .624-.625.805.805 0 0 1 .46.045.8.8 0 0 1 .491.735.795.795 0 0 1-.796.796Zm3.094 0a.788.788 0 0 1-.441-.135.788.788 0 0 1-.338-.816.792.792 0 0 1 .625-.625.8.8 0 0 1 .816.338.795.795 0 0 1-.662 1.238Zm2.299-.796a.8.8 0 0 0 .49.736.797.797 0 1 0-.49-.736Z" fill="#1C85E8"/><path d="M406.568 715.498a6.81 6.81 0 0 0-6.307 4.21 6.803 6.803 0 0 0-.518 2.612 7.211 7.211 0 0 0 .919 3.403.735.735 0 0 1 .094.302.726.726 0 0 1-.046.313l-.457 1.528a.428.428 0 0 0 .322.553.418.418 0 0 0 .237-.022l1.376-.408a1.16 1.16 0 0 1 1.015.245 6.813 6.813 0 0 0 5.997.349 6.819 6.819 0 0 0 3.94-4.536 6.818 6.818 0 0 0-1.185-5.89 6.808 6.808 0 0 0-5.387-2.659v0ZM441.876 719.667l-3.858 3.884 3.858-3.884Zm-3.858 3.884-4.517-2.78a.806.806 0 0 1 .195-1.457l10.664-3.103a.799.799 0 0 1 .985 1.003l-3.164 10.652a.792.792 0 0 1-.662.567.796.796 0 0 1-.784-.38l-2.717-4.502Z" stroke="#1C85E8" stroke-width="1.022" stroke-linecap="round" stroke-linejoin="round"/><path d="M457.126 619.974h106.486v-51.715H457.126v51.715Z" fill="#FFDACC"/><path d="M539.667 455.989s-19.126 21.467-12.765 28.353c12.598 14.151 46.106 40.75 57.085 49.554a4.521 4.521 0 0 0 5.039.31 4.516 4.516 0 0 0 1.324-1.18l25.962-34.134a6.495 6.495 0 0 0-.89-8.884l-50.289-43.365-25.466 9.346Z" fill="#1C85E8"/><path d="M569.862 483.28s23.835 14.167 25.983 42.632l-4.746 6.099s-2.981 5.194-7.112 1.885l-23.238-18.614 9.113-32.002Z" fill="#0E66AF"/><path d="M547.575 494.072c14.868 0 26.921-12.053 26.921-26.921 0-14.868-12.053-26.921-26.921-26.921-14.867 0-26.92 12.053-26.92 26.921 0 14.868 12.053 26.921 26.92 26.921Z" fill="#1C85E8"/><path d="m617.676 551.538 23.527-31.151-22.272-17.29-3.491-2.81-24.403 31.913 4.249 3.057 22.39 16.281Z" fill="#FFDACC"/><path d="M595.286 535.257c6.302-8.438 18.153-24.928 23.645-32.16l-3.491-2.81-24.341 31.723 4.187 3.247Z" fill="#FF967C"/><path d="M629.797 555.858c10.793 0 19.543-8.749 19.543-19.542 0-10.793-8.75-19.543-19.543-19.543s-19.542 8.75-19.542 19.543 8.749 19.542 19.542 19.542Z" fill="#FFDACC"/><path d="M613.25 525.803s63.041-92.579 65.955-100.442c2.836-7.678 17.726 10.799 17.726 10.799l-48.79 106.449-34.891-16.806Z" fill="#FFDACC"/><path d="M677.355 430.136c6.654-13.674 3.034-15.764 5.772-23.493 2.701-7.543-3.626-25.609 1.698-23.363 5.323 2.247 7.256 8.811 7.256 8.811 3.251-6.467 5.964-18.206 14.416-19.946 8.452-1.74 9.337.904 14.357 4.63 13.363 10.06-2.232 26.916-4.667 33.164-1.573 3.919-13.925 16.235-15.232 18.858l-6.044 9.751-17.556-8.412Z" fill="#FFDACC"/><path d="m700.672 392.499 9.445-19.666-9.445 19.666Z" fill="#E56441"/><path d="m700.672 392.499 9.445-19.666" stroke="#E56441" stroke-width=".984" stroke-linecap="round"/><path d="m707.623 395.271 10.442-18.395-10.442 18.395Z" fill="#E56441"/><path d="m707.623 395.271 10.442-18.395" stroke="#E56441" stroke-width=".984" stroke-linecap="round"/><path d="m715.869 398.308 5.938-11.121-5.938 11.121Z" fill="#E56441"/><path d="m715.869 398.308 5.938-11.121" stroke="#E56441" stroke-width=".984" stroke-linecap="round"/><path d="M698.929 409.492c-.377-6.632-4.75-14.466-4.75-14.466l4.75 14.466Z" fill="#E56441"/><path d="M698.929 409.492c-.377-6.632-4.75-14.466-4.75-14.466" stroke="#E56441" stroke-width=".984" stroke-linecap="round"/><path d="M527.806 433.849s26.741 6.154 30.876 9.462c4.135 3.307 7.141 30.192 13.252 43.472 9.047 19.66 14.904 30.118-.295 51.723-9.166 13.031-6.049 46.159-6.049 46.159s9.301 44.091 15.393 122.194H436.762c9.247-93.502 14.006-87.661 14.006-117.31 0-74.912-8.362-146.812-8.362-146.812l50.368-11.606c11.357 1.958 35.032 2.718 35.032 2.718Z" fill="#1C85E8"/><path d="M565.341 581.148s-50.85 22.928-115.443 0c0 0-.183 10.811-.531 16.468 0 0 66.311 24.634 118.275-2.008 0 0 .077-9.831-2.301-14.46Z" fill="#fff"/><path opacity=".6" d="M466.818 467.151s17.563 11.612 12.39 23.329c-5.818 13.174-5.768 47.105 10.928 49.231 29.79 3.794 16.847 9.004 3.073 12.332-13.774 3.329-21.21 11.991-21.21 26.261 0 10.156 16.628 44.004-24.901 43.946 9.537-70.712-10.63-131.518 19.72-155.099Z" fill="#0E66AF"/><path d="m407.868 576.646 35.403-1.215 16.266-49.934-40.944-4.899-10.725 56.048Z" fill="#FFDACC"/><path d="M425.549 594.325c9.765 0 17.68-7.915 17.68-17.68 0-9.764-7.915-17.679-17.68-17.679-9.764 0-17.679 7.915-17.679 17.679 0 9.765 7.915 17.68 17.679 17.68ZM439.024 684.892s-3.403 15.313 2.665 24.73c0 0-4.34 17.7-2.707 19.827 2.819 3.451 5.993-.226 5.993-.226s-1.138 11.171 9.192 10.874c14.494-.313 14.176-20.113 13.641-29.418-.308-9.188-10.268-28.912-10.268-28.912l-18.516 3.125Z" fill="#FFDACC"/><path d="m471.908 728.691-4.033-18.981-2.646 19.428s4.219 6.032 6.308 2.516c.478-.91.61-1.963.371-2.963Z" fill="#FFDACC"/><path d="m444.92 729.051 2.178-12.644M454.229 733.822s2.595-14.295 2.396-17.263M461.356 734.178a60.138 60.138 0 0 0 2.402-17.834" stroke="#E56441" stroke-width="1.804" stroke-linecap="round" stroke-linejoin="round"/><path d="M443.09 574.024s13.979 109.221 16.647 116.322c2.613 6.929-20.713-5.454-20.713-5.454l-29.742-101.676 33.808-9.192Z" fill="#FFDACC"/><path d="m417.21 527.15-1.435 6.804 40.321.868 2.652-7.188-41.538-.484Z" fill="#FF967C"/><path d="M449.1 495.733c14.867 0 26.92-12.053 26.92-26.92 0-14.868-12.053-26.921-26.92-26.921-14.868 0-26.921 12.053-26.921 26.921 0 14.867 12.053 26.92 26.921 26.92Z" fill="#1C85E8"/><path d="M454.292 456.157s-28.372-4.657-30.781 4.402c-5.205 18.218-11.604 47.465-13.16 61.452a4.535 4.535 0 0 0 1.049 3.317 4.522 4.522 0 0 0 3.093 1.591l42.73 3.647a6.494 6.494 0 0 0 7.027-5.51l11.572-52.398-21.53-16.501Z" fill="#1C85E8"/><path d="M512.013 286.533s-21.878-6.03-44.969 13.066-17.297 38.756-17.297 38.756l62.266-51.822Z" fill="url(#a)"/><path d="M554.839 325.477s42.358-59.643-13.999-47.96c-65.018 13.477-122.238 78.507-106.228 99.435 16.009 20.928 82.608-25.105 120.227-51.475Z" fill="url(#b)"/><path d="M560.238 348.595s.164 35.238 14.265 48.392c14.101 13.154-1.87 41.669-26.179 37.89-24.309-3.779-36.55-27.065-35.068-36.379 1.482-9.315 31.67-57.51 46.982-49.903Z" fill="#080B09"/><path d="m526.462 396.698 7.578 52.836s1.99 7.013-6.839 8.075c-8.829 1.062-27.656-1.31-34.379-8.476-6.724-7.165-4.372-10.715-4.372-10.715l14.26-57.349 23.752 15.629Z" fill="#FFDACC"/><path d="m527.516 403.535-18.537-6.548 22.6 35.382-4.063-28.834Z" fill="#FF967C"/><path d="M547.436 331.434s15.904 37.368 7.615 62.98c-5.405 16.703-17.177 19.706-44.137 7.189-24.719-11.477-31.139-20.159-31.139-20.159l-3.646-41.656s55.155-41.661 71.307-8.354Z" fill="#FFDACC"/><path d="m534.341 387.342 14.251-.705a10.208 10.208 0 0 1-.848 2.404c-.786 1.556-2.161 3.174-4.57 3.64-3.88.389-6.102-1.105-7.372-2.661a8.485 8.485 0 0 1-1.461-2.678Z" fill="#E56441" stroke="#E56441"/><path d="M551.812 365.238c1.555-.42 2.315-2.618 1.697-4.91-.619-2.291-2.38-3.809-3.936-3.39-1.555.42-2.314 2.618-1.696 4.91.618 2.291 2.38 3.809 3.935 3.39ZM528.925 371.765c1.555-.42 2.315-2.618 1.696-4.91-.618-2.292-2.38-3.809-3.935-3.39-1.555.42-2.315 2.618-1.696 4.909.618 2.292 2.38 3.81 3.935 3.391ZM553.664 350.009l-11.634 3.345a.855.855 0 0 1-.974-.56 2.758 2.758 0 0 1 .063-1.1 2.756 2.756 0 0 1 2.382-2.026l9.993-1.052c.767-.206 1.128 1.135.17 1.393ZM513.888 359.955l15.777-3.229a3.513 3.513 0 0 0-4.71-2.223l-11.518 4.546c-.382.103-.124 1.061.451.906Z" fill="#080B09"/><path d="m540.841 362.503 7.483 10.078-2.817 3.984" stroke="#E56441" stroke-width="1.294" stroke-linecap="round"/><path d="M537.52 327.882s-1.006 18.151-16.383 26.947c0 0-4.496 13.921-21.278 17.195 0 0 .992-12.796-7.007-12.66-13.582.23-6.902 20.832 2.281 24.212 6.24 2.298 12.763 27.135 3.409 48.35-12.248 27.778-50.741 21.816-56.136-.795-9.436-39.542 21.743-56.855 23.098-90.743 29.167-30.129 35.5-31.359 45.378-35.224 0 0 28.795-9.948 43.957 17.335 12.961 23.322.856 37.241.856 37.241l-6.907-20.757s-2.886 2.026-11.268-11.101Z" fill="#080B09"/><path d="M381.762 359.112c5.367 0 9.718-4.351 9.718-9.718s-4.351-9.718-9.718-9.718-9.718 4.351-9.718 9.718 4.351 9.718 9.718 9.718Z" fill="#fff"/><path d="M367.388 745.571h42.696" stroke="#1C85E8" stroke-width="6.628" stroke-miterlimit="10" stroke-linecap="round"/><path opacity=".3" d="M367.388 762.021h217.603M367.388 778.472h93.968" stroke="#1C85E8" stroke-width="6.628" stroke-miterlimit="10" stroke-linecap="round"/><path d="M456.472 353.375s30.812-49.024 74.365-54.011" stroke="#96BAFD" stroke-width="2" stroke-miterlimit="10" stroke-linecap="round"/><path d="M679.205 425.361s-7.774-2.14-10.94 1.871c-3.167 4.011 4.715 11.467 13.721 16.677 9.006 5.209 18.154 6.1 21.11 2.733 2.955-3.367-3.301-9.475-6.165-11.353" stroke="#1C85E8" stroke-width="1.294" stroke-linecap="round"/><defs><linearGradient id="a" x1="472.97" y1="219.907" x2="496.837" y2="396.489" gradientUnits="userSpaceOnUse"><stop stop-color="#fff"/><stop offset="1" stop-color="#94B9FF"/></linearGradient><linearGradient id="b" x1="485.003" y1="242.193" x2="512.44" y2="502.426" gradientUnits="userSpaceOnUse"><stop stop-color="#fff"/><stop offset="1" stop-color="#94B9FF"/></linearGradient></defs></svg>